<?xml version="1.0" encoding="UTF-8" standalone="no"?>
<!DOCTYPE svg PUBLIC "-//W3C//DTD SVG 1.1//EN" "http://www.w3.org/Graphics/SVG/1.1/DTD/svg11.dtd">
<svg width="100%" height="100%" viewBox="0 0 720 218" version="1.1" xmlns="http://www.w3.org/2000/svg" xmlns:xlink="http://www.w3.org/1999/xlink" xml:space="preserve" xmlns:serif="http://www.serif.com/" style="fill-rule:evenodd;clip-rule:evenodd;stroke-linejoin:round;stroke-miterlimit:2;">
    <g id="Artboard1" transform="matrix(1.25741,0,0,0.687697,-121.954,-37.1868)">
        <rect x="96.988" y="54.074" width="572.558" height="315.986" style="fill:none;"/>
        <g transform="matrix(8.42525,0,0,15.4051,-1469.61,-4106.44)">
            <g transform="matrix(12,0,0,12,201.196,283.287)">
                <path d="M0.501,-0L0.077,-0L0.077,-0.714L0.501,-0.714L0.501,-0.559L0.27,-0.559L0.27,-0.447L0.484,-0.447L0.484,-0.292L0.27,-0.292L0.27,-0.157L0.501,-0.157L0.501,-0Z" style="fill:rgb(30,148,0);fill-rule:nonzero;"/>
            </g>
            <g transform="matrix(12,0,0,12,207.864,283.287)">
                <path d="M0.604,-0.553L0.604,-0L0.46,-0L0.436,-0.069L0.425,-0.069C0.413,-0.05 0.399,-0.035 0.382,-0.024C0.364,-0.012 0.345,-0.004 0.324,0.002C0.303,0.007 0.281,0.01 0.258,0.01C0.222,0.01 0.189,0.003 0.16,-0.011C0.131,-0.025 0.108,-0.047 0.091,-0.077C0.073,-0.107 0.065,-0.146 0.065,-0.193L0.065,-0.553L0.256,-0.553L0.256,-0.251C0.256,-0.215 0.261,-0.188 0.271,-0.169C0.281,-0.15 0.298,-0.141 0.322,-0.141C0.346,-0.141 0.365,-0.148 0.378,-0.161C0.391,-0.174 0.4,-0.193 0.405,-0.218C0.41,-0.244 0.413,-0.275 0.413,-0.311L0.413,-0.553L0.604,-0.553Z" style="fill:rgb(30,148,0);fill-rule:nonzero;"/>
            </g>
            <g transform="matrix(12,0,0,12,215.223,283.287)">
                <path d="M0.4,-0.563C0.41,-0.563 0.421,-0.562 0.433,-0.561C0.444,-0.559 0.452,-0.558 0.458,-0.557L0.441,-0.377C0.435,-0.379 0.427,-0.38 0.417,-0.381C0.407,-0.382 0.394,-0.383 0.376,-0.383C0.364,-0.383 0.351,-0.382 0.337,-0.379C0.324,-0.377 0.311,-0.372 0.299,-0.365C0.286,-0.358 0.276,-0.347 0.269,-0.332C0.261,-0.317 0.257,-0.297 0.257,-0.272L0.257,-0L0.066,-0L0.066,-0.553L0.208,-0.553L0.238,-0.465L0.247,-0.465C0.257,-0.483 0.27,-0.5 0.286,-0.514C0.302,-0.529 0.319,-0.541 0.339,-0.55C0.359,-0.559 0.379,-0.563 0.4,-0.563Z" style="fill:rgb(30,148,0);fill-rule:nonzero;"/>
            </g>
            <g transform="matrix(12,0,0,12,220.127,283.287)">
                <path d="M0.594,-0.278C0.594,-0.232 0.588,-0.191 0.575,-0.155C0.563,-0.119 0.544,-0.089 0.52,-0.064C0.496,-0.04 0.467,-0.022 0.433,-0.009C0.398,0.003 0.36,0.01 0.317,0.01C0.277,0.01 0.24,0.003 0.207,-0.009C0.173,-0.022 0.144,-0.04 0.12,-0.064C0.095,-0.089 0.076,-0.119 0.062,-0.155C0.049,-0.191 0.042,-0.232 0.042,-0.278C0.042,-0.339 0.053,-0.391 0.075,-0.433C0.098,-0.475 0.13,-0.508 0.171,-0.53C0.213,-0.552 0.262,-0.563 0.32,-0.563C0.373,-0.563 0.42,-0.552 0.461,-0.53C0.503,-0.508 0.535,-0.475 0.559,-0.433C0.582,-0.391 0.594,-0.339 0.594,-0.278ZM0.236,-0.278C0.236,-0.246 0.239,-0.22 0.244,-0.198C0.25,-0.176 0.259,-0.16 0.271,-0.149C0.283,-0.137 0.299,-0.132 0.319,-0.132C0.339,-0.132 0.354,-0.137 0.366,-0.149C0.378,-0.16 0.386,-0.176 0.392,-0.198C0.397,-0.22 0.4,-0.246 0.4,-0.278C0.4,-0.309 0.397,-0.336 0.392,-0.357C0.386,-0.378 0.378,-0.394 0.366,-0.405C0.354,-0.416 0.338,-0.421 0.318,-0.421C0.289,-0.421 0.268,-0.409 0.255,-0.385C0.242,-0.361 0.236,-0.325 0.236,-0.278Z" style="fill:rgb(30,148,0);fill-rule:nonzero;"/>
            </g>
            <g transform="matrix(12,0,0,12,227.346,283.287)">
                <path d="M0.267,-0L0.077,-0L0.077,-0.714L0.499,-0.714L0.499,-0.559L0.267,-0.559L0.267,-0.423L0.481,-0.423L0.481,-0.268L0.267,-0.268L0.267,-0Z" style="fill:rgb(30,148,0);fill-rule:nonzero;"/>
            </g>
            <g transform="matrix(12,0,0,12,233.54,283.287)">
                <path d="M0.336,-0.563C0.406,-0.563 0.461,-0.546 0.5,-0.511C0.539,-0.476 0.559,-0.427 0.559,-0.363L0.559,-0L0.427,-0L0.39,-0.073L0.386,-0.073C0.371,-0.054 0.355,-0.038 0.338,-0.026C0.322,-0.013 0.303,-0.004 0.282,0.001C0.261,0.007 0.235,0.01 0.204,0.01C0.172,0.01 0.144,0.003 0.118,-0.01C0.093,-0.023 0.073,-0.042 0.058,-0.069C0.043,-0.095 0.036,-0.129 0.036,-0.169C0.036,-0.228 0.057,-0.272 0.098,-0.301C0.139,-0.329 0.198,-0.346 0.276,-0.349L0.368,-0.352L0.368,-0.36C0.368,-0.385 0.362,-0.402 0.35,-0.413C0.338,-0.423 0.321,-0.428 0.301,-0.428C0.279,-0.428 0.255,-0.424 0.228,-0.417C0.201,-0.409 0.174,-0.399 0.147,-0.387L0.092,-0.513C0.124,-0.529 0.16,-0.542 0.2,-0.55C0.241,-0.559 0.286,-0.563 0.336,-0.563ZM0.369,-0.247L0.325,-0.245C0.29,-0.244 0.265,-0.238 0.251,-0.227C0.237,-0.216 0.23,-0.2 0.23,-0.18C0.23,-0.161 0.235,-0.147 0.245,-0.138C0.255,-0.129 0.269,-0.125 0.285,-0.125C0.308,-0.125 0.328,-0.132 0.344,-0.147C0.361,-0.162 0.369,-0.181 0.369,-0.204L0.369,-0.247Z" style="fill:rgb(30,148,0);fill-rule:nonzero;"/>
            </g>
            <g transform="matrix(12,0,0,12,240.207,283.287)">
                <path d="M0.257,-0.76L0.257,-0.588C0.257,-0.568 0.256,-0.55 0.255,-0.532C0.254,-0.514 0.252,-0.498 0.25,-0.482L0.257,-0.482C0.271,-0.504 0.29,-0.524 0.313,-0.539C0.336,-0.555 0.366,-0.563 0.404,-0.563C0.461,-0.563 0.509,-0.539 0.545,-0.49C0.582,-0.441 0.6,-0.37 0.6,-0.278C0.6,-0.215 0.592,-0.162 0.575,-0.119C0.558,-0.077 0.534,-0.044 0.504,-0.023C0.473,-0.001 0.438,0.01 0.398,0.01C0.359,0.01 0.329,0.003 0.309,-0.01C0.288,-0.024 0.271,-0.039 0.257,-0.054L0.245,-0.054L0.215,-0L0.066,-0L0.066,-0.76L0.257,-0.76ZM0.334,-0.413C0.316,-0.413 0.302,-0.409 0.291,-0.401C0.279,-0.393 0.271,-0.38 0.265,-0.363C0.26,-0.346 0.257,-0.324 0.257,-0.298L0.257,-0.271C0.257,-0.228 0.263,-0.196 0.274,-0.175C0.286,-0.154 0.306,-0.144 0.336,-0.144C0.358,-0.144 0.376,-0.156 0.388,-0.179C0.4,-0.202 0.406,-0.236 0.406,-0.28C0.406,-0.324 0.4,-0.357 0.388,-0.38C0.376,-0.402 0.358,-0.413 0.334,-0.413Z" style="fill:rgb(30,148,0);fill-rule:nonzero;"/>
            </g>
        </g>
        <g transform="matrix(0.161505,0,0,0.295302,350.998,176.454)">
            <g transform="matrix(127.128,0,0,127.128,258.529,414.749)">
                <path d="M0.501,-0L0.077,-0L0.077,-0.714L0.501,-0.714L0.501,-0.559L0.27,-0.559L0.27,-0.447L0.484,-0.447L0.484,-0.292L0.27,-0.292L0.27,-0.157L0.501,-0.157L0.501,-0Z" style="fill:rgb(30,148,0);fill-rule:nonzero;"/>
            </g>
            <g transform="matrix(127.128,0,0,127.128,329.169,414.749)">
                <path d="M0.604,-0.553L0.604,-0L0.46,-0L0.436,-0.069L0.425,-0.069C0.413,-0.05 0.399,-0.035 0.382,-0.024C0.364,-0.012 0.345,-0.004 0.324,0.002C0.303,0.007 0.281,0.01 0.258,0.01C0.222,0.01 0.189,0.003 0.16,-0.011C0.131,-0.025 0.108,-0.047 0.091,-0.077C0.073,-0.107 0.065,-0.146 0.065,-0.193L0.065,-0.553L0.256,-0.553L0.256,-0.251C0.256,-0.215 0.261,-0.188 0.271,-0.169C0.281,-0.15 0.298,-0.141 0.322,-0.141C0.346,-0.141 0.365,-0.148 0.378,-0.161C0.391,-0.174 0.4,-0.193 0.405,-0.218C0.41,-0.244 0.413,-0.275 0.413,-0.311L0.413,-0.553L0.604,-0.553Z" style="fill:rgb(30,148,0);fill-rule:nonzero;"/>
            </g>
            <g transform="matrix(127.128,0,0,127.128,407.134,414.749)">
                <path d="M0.4,-0.563C0.41,-0.563 0.421,-0.562 0.433,-0.561C0.444,-0.559 0.452,-0.558 0.458,-0.557L0.441,-0.377C0.435,-0.379 0.427,-0.38 0.417,-0.381C0.407,-0.382 0.394,-0.383 0.376,-0.383C0.364,-0.383 0.351,-0.382 0.337,-0.379C0.324,-0.377 0.311,-0.372 0.299,-0.365C0.286,-0.358 0.276,-0.347 0.269,-0.332C0.261,-0.317 0.257,-0.297 0.257,-0.272L0.257,-0L0.066,-0L0.066,-0.553L0.208,-0.553L0.238,-0.465L0.247,-0.465C0.257,-0.483 0.27,-0.5 0.286,-0.514C0.302,-0.529 0.319,-0.541 0.339,-0.55C0.359,-0.559 0.379,-0.563 0.4,-0.563Z" style="fill:rgb(30,148,0);fill-rule:nonzero;"/>
            </g>
            <g transform="matrix(127.128,0,0,127.128,459.091,414.749)">
                <path d="M0.594,-0.278C0.594,-0.232 0.588,-0.191 0.575,-0.155C0.563,-0.119 0.544,-0.089 0.52,-0.064C0.496,-0.04 0.467,-0.022 0.433,-0.009C0.398,0.003 0.36,0.01 0.317,0.01C0.277,0.01 0.24,0.003 0.207,-0.009C0.173,-0.022 0.144,-0.04 0.12,-0.064C0.095,-0.089 0.076,-0.119 0.062,-0.155C0.049,-0.191 0.042,-0.232 0.042,-0.278C0.042,-0.339 0.053,-0.391 0.075,-0.433C0.098,-0.475 0.13,-0.508 0.171,-0.53C0.213,-0.552 0.262,-0.563 0.32,-0.563C0.373,-0.563 0.42,-0.552 0.461,-0.53C0.503,-0.508 0.535,-0.475 0.559,-0.433C0.582,-0.391 0.594,-0.339 0.594,-0.278ZM0.236,-0.278C0.236,-0.246 0.239,-0.22 0.244,-0.198C0.25,-0.176 0.259,-0.16 0.271,-0.149C0.283,-0.137 0.299,-0.132 0.319,-0.132C0.339,-0.132 0.354,-0.137 0.366,-0.149C0.378,-0.16 0.386,-0.176 0.392,-0.198C0.397,-0.22 0.4,-0.246 0.4,-0.278C0.4,-0.309 0.397,-0.336 0.392,-0.357C0.386,-0.378 0.378,-0.394 0.366,-0.405C0.354,-0.416 0.338,-0.421 0.318,-0.421C0.289,-0.421 0.268,-0.409 0.255,-0.385C0.242,-0.361 0.236,-0.325 0.236,-0.278Z" style="fill:rgb(30,148,0);fill-rule:nonzero;"/>
            </g>
            <g transform="matrix(127.128,0,0,127.128,535.566,414.749)">
                <path d="M0.404,-0.563C0.465,-0.563 0.513,-0.538 0.548,-0.49C0.583,-0.441 0.6,-0.37 0.6,-0.278C0.6,-0.215 0.591,-0.162 0.574,-0.119C0.556,-0.077 0.532,-0.044 0.502,-0.023C0.471,-0.001 0.437,0.01 0.398,0.01C0.372,0.01 0.35,0.007 0.332,-0C0.314,-0.007 0.299,-0.015 0.287,-0.024C0.275,-0.034 0.265,-0.044 0.257,-0.054L0.251,-0.054C0.253,-0.042 0.254,-0.028 0.255,-0.013C0.256,0.001 0.257,0.019 0.257,0.038L0.257,0.24L0.066,0.24L0.066,-0.553L0.221,-0.553L0.248,-0.483L0.257,-0.483C0.266,-0.497 0.277,-0.51 0.29,-0.523C0.303,-0.535 0.319,-0.545 0.338,-0.552C0.356,-0.559 0.378,-0.563 0.404,-0.563ZM0.332,-0.413C0.313,-0.413 0.299,-0.409 0.288,-0.4C0.277,-0.391 0.27,-0.378 0.265,-0.36C0.26,-0.342 0.257,-0.32 0.257,-0.294L0.257,-0.279C0.257,-0.25 0.259,-0.225 0.264,-0.205C0.268,-0.185 0.276,-0.17 0.287,-0.159C0.298,-0.149 0.313,-0.144 0.333,-0.144C0.349,-0.144 0.362,-0.149 0.373,-0.158C0.384,-0.167 0.392,-0.181 0.397,-0.201C0.403,-0.221 0.406,-0.247 0.406,-0.28C0.406,-0.328 0.399,-0.363 0.387,-0.383C0.374,-0.403 0.356,-0.413 0.332,-0.413Z" style="fill:rgb(30,148,0);fill-rule:nonzero;"/>
            </g>
            <g transform="matrix(127.128,0,0,127.128,613.345,414.749)">
                <path d="M0.315,-0.563C0.369,-0.563 0.415,-0.554 0.454,-0.535C0.493,-0.516 0.523,-0.488 0.544,-0.451C0.566,-0.413 0.576,-0.366 0.576,-0.31L0.576,-0.225L0.235,-0.225C0.236,-0.196 0.247,-0.172 0.267,-0.154C0.287,-0.135 0.317,-0.126 0.356,-0.126C0.39,-0.126 0.422,-0.129 0.451,-0.136C0.48,-0.143 0.509,-0.154 0.54,-0.168L0.54,-0.031C0.513,-0.017 0.484,-0.007 0.453,-0C0.421,0.007 0.381,0.01 0.333,0.01C0.277,0.01 0.228,-0 0.184,-0.02C0.14,-0.04 0.105,-0.071 0.08,-0.112C0.055,-0.154 0.042,-0.208 0.042,-0.273C0.042,-0.339 0.053,-0.394 0.076,-0.437C0.099,-0.48 0.131,-0.511 0.172,-0.532C0.213,-0.553 0.261,-0.563 0.315,-0.563ZM0.322,-0.433C0.299,-0.433 0.281,-0.426 0.265,-0.412C0.25,-0.398 0.241,-0.375 0.239,-0.345L0.403,-0.345C0.403,-0.361 0.399,-0.376 0.393,-0.39C0.387,-0.403 0.378,-0.414 0.366,-0.421C0.354,-0.429 0.339,-0.433 0.322,-0.433Z" style="fill:rgb(30,148,0);fill-rule:nonzero;"/>
            </g>
            <g transform="matrix(127.128,0,0,127.128,684.731,414.749)">
                <path d="M0.336,-0.563C0.406,-0.563 0.461,-0.546 0.5,-0.511C0.539,-0.476 0.559,-0.427 0.559,-0.363L0.559,-0L0.427,-0L0.39,-0.073L0.386,-0.073C0.371,-0.054 0.355,-0.038 0.338,-0.026C0.322,-0.013 0.303,-0.004 0.282,0.001C0.261,0.007 0.235,0.01 0.204,0.01C0.172,0.01 0.144,0.003 0.118,-0.01C0.093,-0.023 0.073,-0.042 0.058,-0.069C0.043,-0.095 0.036,-0.129 0.036,-0.169C0.036,-0.228 0.057,-0.272 0.098,-0.301C0.139,-0.329 0.198,-0.346 0.276,-0.349L0.368,-0.352L0.368,-0.36C0.368,-0.385 0.362,-0.402 0.35,-0.413C0.338,-0.423 0.321,-0.428 0.301,-0.428C0.279,-0.428 0.255,-0.424 0.228,-0.417C0.201,-0.409 0.174,-0.399 0.147,-0.387L0.092,-0.513C0.124,-0.529 0.16,-0.542 0.2,-0.55C0.241,-0.559 0.286,-0.563 0.336,-0.563ZM0.369,-0.247L0.325,-0.245C0.29,-0.244 0.265,-0.238 0.251,-0.227C0.237,-0.216 0.23,-0.2 0.23,-0.18C0.23,-0.161 0.235,-0.147 0.245,-0.138C0.255,-0.129 0.269,-0.125 0.285,-0.125C0.308,-0.125 0.328,-0.132 0.344,-0.147C0.361,-0.162 0.369,-0.181 0.369,-0.204L0.369,-0.247Z" style="fill:rgb(30,148,0);fill-rule:nonzero;"/>
            </g>
            <g transform="matrix(127.128,0,0,127.128,755.371,414.749)">
                <path d="M0.412,-0.563C0.469,-0.563 0.516,-0.547 0.552,-0.515C0.588,-0.482 0.606,-0.431 0.606,-0.36L0.606,-0L0.415,-0L0.415,-0.302C0.415,-0.339 0.41,-0.366 0.399,-0.385C0.389,-0.404 0.372,-0.413 0.348,-0.413C0.312,-0.413 0.288,-0.398 0.275,-0.369C0.263,-0.339 0.257,-0.297 0.257,-0.242L0.257,-0L0.066,-0L0.066,-0.553L0.21,-0.553L0.236,-0.48L0.243,-0.48C0.255,-0.498 0.269,-0.513 0.285,-0.525C0.301,-0.537 0.32,-0.547 0.341,-0.553C0.362,-0.56 0.386,-0.563 0.412,-0.563Z" style="fill:rgb(30,148,0);fill-rule:nonzero;"/>
            </g>
            <g transform="matrix(127.128,0,0,127.128,866.36,414.749)">
                <path d="M0.684,-0.714L0.684,-0.284C0.684,-0.224 0.673,-0.172 0.65,-0.128C0.627,-0.084 0.593,-0.05 0.547,-0.026C0.502,-0.002 0.445,0.01 0.376,0.01C0.278,0.01 0.203,-0.015 0.151,-0.066C0.099,-0.116 0.073,-0.188 0.073,-0.28L0.073,-0.714L0.267,-0.714L0.267,-0.295C0.267,-0.244 0.277,-0.208 0.295,-0.185C0.314,-0.162 0.342,-0.151 0.379,-0.151C0.405,-0.151 0.427,-0.156 0.443,-0.166C0.46,-0.176 0.472,-0.191 0.48,-0.213C0.487,-0.234 0.491,-0.262 0.491,-0.296L0.491,-0.714L0.684,-0.714Z" style="fill:rgb(30,148,0);fill-rule:nonzero;"/>
            </g>
            <g transform="matrix(127.128,0,0,127.128,959.037,414.749)">
                <path d="M0.4,-0.563C0.41,-0.563 0.421,-0.562 0.433,-0.561C0.444,-0.559 0.452,-0.558 0.458,-0.557L0.441,-0.377C0.435,-0.379 0.427,-0.38 0.417,-0.381C0.407,-0.382 0.394,-0.383 0.376,-0.383C0.364,-0.383 0.351,-0.382 0.337,-0.379C0.324,-0.377 0.311,-0.372 0.299,-0.365C0.286,-0.358 0.276,-0.347 0.269,-0.332C0.261,-0.317 0.257,-0.297 0.257,-0.272L0.257,-0L0.066,-0L0.066,-0.553L0.208,-0.553L0.238,-0.465L0.247,-0.465C0.257,-0.483 0.27,-0.5 0.286,-0.514C0.302,-0.529 0.319,-0.541 0.339,-0.55C0.359,-0.559 0.379,-0.563 0.4,-0.563Z" style="fill:rgb(30,148,0);fill-rule:nonzero;"/>
            </g>
            <g transform="matrix(127.128,0,0,127.128,1010.99,414.749)">
                <path d="M0.257,-0.76L0.257,-0.588C0.257,-0.568 0.256,-0.55 0.255,-0.532C0.254,-0.514 0.252,-0.498 0.25,-0.482L0.257,-0.482C0.271,-0.504 0.29,-0.524 0.313,-0.539C0.336,-0.555 0.366,-0.563 0.404,-0.563C0.461,-0.563 0.509,-0.539 0.545,-0.49C0.582,-0.441 0.6,-0.37 0.6,-0.278C0.6,-0.215 0.592,-0.162 0.575,-0.119C0.558,-0.077 0.534,-0.044 0.504,-0.023C0.473,-0.001 0.438,0.01 0.398,0.01C0.359,0.01 0.329,0.003 0.309,-0.01C0.288,-0.024 0.271,-0.039 0.257,-0.054L0.245,-0.054L0.215,-0L0.066,-0L0.066,-0.76L0.257,-0.76ZM0.334,-0.413C0.316,-0.413 0.302,-0.409 0.291,-0.401C0.279,-0.393 0.271,-0.38 0.265,-0.363C0.26,-0.346 0.257,-0.324 0.257,-0.298L0.257,-0.271C0.257,-0.228 0.263,-0.196 0.274,-0.175C0.286,-0.154 0.306,-0.144 0.336,-0.144C0.358,-0.144 0.376,-0.156 0.388,-0.179C0.4,-0.202 0.406,-0.236 0.406,-0.28C0.406,-0.324 0.4,-0.357 0.388,-0.38C0.376,-0.402 0.358,-0.413 0.334,-0.413Z" style="fill:rgb(30,148,0);fill-rule:nonzero;"/>
            </g>
            <g transform="matrix(127.128,0,0,127.128,1088.77,414.749)">
                <path d="M0.336,-0.563C0.406,-0.563 0.461,-0.546 0.5,-0.511C0.539,-0.476 0.559,-0.427 0.559,-0.363L0.559,-0L0.427,-0L0.39,-0.073L0.386,-0.073C0.371,-0.054 0.355,-0.038 0.338,-0.026C0.322,-0.013 0.303,-0.004 0.282,0.001C0.261,0.007 0.235,0.01 0.204,0.01C0.172,0.01 0.144,0.003 0.118,-0.01C0.093,-0.023 0.073,-0.042 0.058,-0.069C0.043,-0.095 0.036,-0.129 0.036,-0.169C0.036,-0.228 0.057,-0.272 0.098,-0.301C0.139,-0.329 0.198,-0.346 0.276,-0.349L0.368,-0.352L0.368,-0.36C0.368,-0.385 0.362,-0.402 0.35,-0.413C0.338,-0.423 0.321,-0.428 0.301,-0.428C0.279,-0.428 0.255,-0.424 0.228,-0.417C0.201,-0.409 0.174,-0.399 0.147,-0.387L0.092,-0.513C0.124,-0.529 0.16,-0.542 0.2,-0.55C0.241,-0.559 0.286,-0.563 0.336,-0.563ZM0.369,-0.247L0.325,-0.245C0.29,-0.244 0.265,-0.238 0.251,-0.227C0.237,-0.216 0.23,-0.2 0.23,-0.18C0.23,-0.161 0.235,-0.147 0.245,-0.138C0.255,-0.129 0.269,-0.125 0.285,-0.125C0.308,-0.125 0.328,-0.132 0.344,-0.147C0.361,-0.162 0.369,-0.181 0.369,-0.204L0.369,-0.247Z" style="fill:rgb(30,148,0);fill-rule:nonzero;"/>
            </g>
            <g transform="matrix(127.128,0,0,127.128,1159.41,414.749)">
                <path d="M0.412,-0.563C0.469,-0.563 0.516,-0.547 0.552,-0.515C0.588,-0.482 0.606,-0.431 0.606,-0.36L0.606,-0L0.415,-0L0.415,-0.302C0.415,-0.339 0.41,-0.366 0.399,-0.385C0.389,-0.404 0.372,-0.413 0.348,-0.413C0.312,-0.413 0.288,-0.398 0.275,-0.369C0.263,-0.339 0.257,-0.297 0.257,-0.242L0.257,-0L0.066,-0L0.066,-0.553L0.21,-0.553L0.236,-0.48L0.243,-0.48C0.255,-0.498 0.269,-0.513 0.285,-0.525C0.301,-0.537 0.32,-0.547 0.341,-0.553C0.362,-0.56 0.386,-0.563 0.412,-0.563Z" style="fill:rgb(30,148,0);fill-rule:nonzero;"/>
            </g>
            <g transform="matrix(127.128,0,0,127.128,1270.4,414.749)">
                <path d="M0.267,-0L0.077,-0L0.077,-0.714L0.499,-0.714L0.499,-0.559L0.267,-0.559L0.267,-0.423L0.481,-0.423L0.481,-0.268L0.267,-0.268L0.267,-0Z" style="fill:rgb(30,148,0);fill-rule:nonzero;"/>
            </g>
            <g transform="matrix(127.128,0,0,127.128,1336.01,414.749)">
                <path d="M0.336,-0.563C0.406,-0.563 0.461,-0.546 0.5,-0.511C0.539,-0.476 0.559,-0.427 0.559,-0.363L0.559,-0L0.427,-0L0.39,-0.073L0.386,-0.073C0.371,-0.054 0.355,-0.038 0.338,-0.026C0.322,-0.013 0.303,-0.004 0.282,0.001C0.261,0.007 0.235,0.01 0.204,0.01C0.172,0.01 0.144,0.003 0.118,-0.01C0.093,-0.023 0.073,-0.042 0.058,-0.069C0.043,-0.095 0.036,-0.129 0.036,-0.169C0.036,-0.228 0.057,-0.272 0.098,-0.301C0.139,-0.329 0.198,-0.346 0.276,-0.349L0.368,-0.352L0.368,-0.36C0.368,-0.385 0.362,-0.402 0.35,-0.413C0.338,-0.423 0.321,-0.428 0.301,-0.428C0.279,-0.428 0.255,-0.424 0.228,-0.417C0.201,-0.409 0.174,-0.399 0.147,-0.387L0.092,-0.513C0.124,-0.529 0.16,-0.542 0.2,-0.55C0.241,-0.559 0.286,-0.563 0.336,-0.563ZM0.369,-0.247L0.325,-0.245C0.29,-0.244 0.265,-0.238 0.251,-0.227C0.237,-0.216 0.23,-0.2 0.23,-0.18C0.23,-0.161 0.235,-0.147 0.245,-0.138C0.255,-0.129 0.269,-0.125 0.285,-0.125C0.308,-0.125 0.328,-0.132 0.344,-0.147C0.361,-0.162 0.369,-0.181 0.369,-0.204L0.369,-0.247Z" style="fill:rgb(30,148,0);fill-rule:nonzero;"/>
            </g>
            <g transform="matrix(127.128,0,0,127.128,1406.65,414.749)">
                <path d="M0.257,-0.76L0.257,-0.588C0.257,-0.568 0.256,-0.55 0.255,-0.532C0.254,-0.514 0.252,-0.498 0.25,-0.482L0.257,-0.482C0.271,-0.504 0.29,-0.524 0.313,-0.539C0.336,-0.555 0.366,-0.563 0.404,-0.563C0.461,-0.563 0.509,-0.539 0.545,-0.49C0.582,-0.441 0.6,-0.37 0.6,-0.278C0.6,-0.215 0.592,-0.162 0.575,-0.119C0.558,-0.077 0.534,-0.044 0.504,-0.023C0.473,-0.001 0.438,0.01 0.398,0.01C0.359,0.01 0.329,0.003 0.309,-0.01C0.288,-0.024 0.271,-0.039 0.257,-0.054L0.245,-0.054L0.215,-0L0.066,-0L0.066,-0.76L0.257,-0.76ZM0.334,-0.413C0.316,-0.413 0.302,-0.409 0.291,-0.401C0.279,-0.393 0.271,-0.38 0.265,-0.363C0.26,-0.346 0.257,-0.324 0.257,-0.298L0.257,-0.271C0.257,-0.228 0.263,-0.196 0.274,-0.175C0.286,-0.154 0.306,-0.144 0.336,-0.144C0.358,-0.144 0.376,-0.156 0.388,-0.179C0.4,-0.202 0.406,-0.236 0.406,-0.28C0.406,-0.324 0.4,-0.357 0.388,-0.38C0.376,-0.402 0.358,-0.413 0.334,-0.413Z" style="fill:rgb(30,148,0);fill-rule:nonzero;"/>
            </g>
            <g transform="matrix(127.128,0,0,127.128,1484.43,414.749)">
                <path d="M0.4,-0.563C0.41,-0.563 0.421,-0.562 0.433,-0.561C0.444,-0.559 0.452,-0.558 0.458,-0.557L0.441,-0.377C0.435,-0.379 0.427,-0.38 0.417,-0.381C0.407,-0.382 0.394,-0.383 0.376,-0.383C0.364,-0.383 0.351,-0.382 0.337,-0.379C0.324,-0.377 0.311,-0.372 0.299,-0.365C0.286,-0.358 0.276,-0.347 0.269,-0.332C0.261,-0.317 0.257,-0.297 0.257,-0.272L0.257,-0L0.066,-0L0.066,-0.553L0.208,-0.553L0.238,-0.465L0.247,-0.465C0.257,-0.483 0.27,-0.5 0.286,-0.514C0.302,-0.529 0.319,-0.541 0.339,-0.55C0.359,-0.559 0.379,-0.563 0.4,-0.563Z" style="fill:rgb(30,148,0);fill-rule:nonzero;"/>
            </g>
            <g transform="matrix(127.128,0,0,127.128,1536.39,414.749)">
                <path d="M0.258,-0.553L0.258,-0L0.067,-0L0.067,-0.553L0.258,-0.553ZM0.163,-0.776C0.19,-0.776 0.214,-0.77 0.235,-0.759C0.255,-0.747 0.265,-0.725 0.265,-0.691C0.265,-0.658 0.255,-0.636 0.235,-0.624C0.214,-0.613 0.19,-0.607 0.163,-0.607C0.135,-0.607 0.111,-0.613 0.092,-0.624C0.072,-0.636 0.062,-0.658 0.062,-0.691C0.062,-0.725 0.072,-0.747 0.092,-0.759C0.111,-0.77 0.135,-0.776 0.163,-0.776Z" style="fill:rgb(30,148,0);fill-rule:nonzero;"/>
            </g>
            <g transform="matrix(127.128,0,0,127.128,1568.48,414.749)">
                <path d="M0.318,0.01C0.262,0.01 0.213,-0 0.172,-0.02C0.131,-0.04 0.099,-0.071 0.076,-0.113C0.053,-0.155 0.042,-0.208 0.042,-0.274C0.042,-0.341 0.055,-0.396 0.08,-0.438C0.105,-0.481 0.14,-0.513 0.184,-0.533C0.228,-0.553 0.277,-0.563 0.333,-0.563C0.367,-0.563 0.399,-0.559 0.429,-0.552C0.46,-0.544 0.488,-0.534 0.514,-0.521L0.458,-0.38C0.435,-0.39 0.414,-0.398 0.394,-0.404C0.375,-0.41 0.354,-0.413 0.333,-0.413C0.314,-0.413 0.297,-0.408 0.282,-0.398C0.268,-0.388 0.256,-0.373 0.248,-0.352C0.24,-0.332 0.236,-0.306 0.236,-0.275C0.236,-0.243 0.24,-0.217 0.248,-0.198C0.257,-0.178 0.268,-0.164 0.283,-0.155C0.298,-0.146 0.315,-0.142 0.334,-0.142C0.362,-0.142 0.389,-0.146 0.417,-0.155C0.444,-0.164 0.47,-0.176 0.495,-0.191L0.495,-0.039C0.472,-0.024 0.447,-0.012 0.418,-0.003C0.389,0.005 0.356,0.01 0.318,0.01Z" style="fill:rgb(30,148,0);fill-rule:nonzero;"/>
            </g>
        </g>
        <g transform="matrix(0.161505,0,0,0.295302,352.266,197.883)">
            <g transform="matrix(54.1664,0,0,54.1664,258.529,414.749)">
                <path d="M0.336,-0.563C0.406,-0.563 0.461,-0.546 0.5,-0.511C0.539,-0.476 0.559,-0.427 0.559,-0.363L0.559,-0L0.427,-0L0.39,-0.073L0.386,-0.073C0.371,-0.054 0.355,-0.038 0.338,-0.026C0.322,-0.013 0.303,-0.004 0.282,0.001C0.261,0.007 0.235,0.01 0.204,0.01C0.172,0.01 0.144,0.003 0.118,-0.01C0.093,-0.023 0.073,-0.042 0.058,-0.069C0.043,-0.095 0.036,-0.129 0.036,-0.169C0.036,-0.228 0.057,-0.272 0.098,-0.301C0.139,-0.329 0.198,-0.346 0.276,-0.349L0.368,-0.352L0.368,-0.36C0.368,-0.385 0.362,-0.402 0.35,-0.413C0.338,-0.423 0.321,-0.428 0.301,-0.428C0.279,-0.428 0.255,-0.424 0.228,-0.417C0.201,-0.409 0.174,-0.399 0.147,-0.387L0.092,-0.513C0.124,-0.529 0.16,-0.542 0.2,-0.55C0.241,-0.559 0.286,-0.563 0.336,-0.563ZM0.369,-0.247L0.325,-0.245C0.29,-0.244 0.265,-0.238 0.251,-0.227C0.237,-0.216 0.23,-0.2 0.23,-0.18C0.23,-0.161 0.235,-0.147 0.245,-0.138C0.255,-0.129 0.269,-0.125 0.285,-0.125C0.308,-0.125 0.328,-0.132 0.344,-0.147C0.361,-0.162 0.369,-0.181 0.369,-0.204L0.369,-0.247Z" style="fill:rgb(30,148,0);fill-rule:nonzero;"/>
            </g>
            <g transform="matrix(54.1664,0,0,54.1664,302.697,414.749)">
                <path d="M0.4,-0.563C0.41,-0.563 0.421,-0.562 0.433,-0.561C0.444,-0.559 0.452,-0.558 0.458,-0.557L0.441,-0.377C0.435,-0.379 0.427,-0.38 0.417,-0.381C0.407,-0.382 0.394,-0.383 0.376,-0.383C0.364,-0.383 0.351,-0.382 0.337,-0.379C0.324,-0.377 0.311,-0.372 0.299,-0.365C0.286,-0.358 0.276,-0.347 0.269,-0.332C0.261,-0.317 0.257,-0.297 0.257,-0.272L0.257,-0L0.066,-0L0.066,-0.553L0.208,-0.553L0.238,-0.465L0.247,-0.465C0.257,-0.483 0.27,-0.5 0.286,-0.514C0.302,-0.529 0.319,-0.541 0.339,-0.55C0.359,-0.559 0.379,-0.563 0.4,-0.563Z" style="fill:rgb(30,148,0);fill-rule:nonzero;"/>
            </g>
            <g transform="matrix(54.1664,0,0,54.1664,324.835,414.749)">
                <path d="M0.315,-0.563C0.369,-0.563 0.415,-0.554 0.454,-0.535C0.493,-0.516 0.523,-0.488 0.544,-0.451C0.566,-0.413 0.576,-0.366 0.576,-0.31L0.576,-0.225L0.235,-0.225C0.236,-0.196 0.247,-0.172 0.267,-0.154C0.287,-0.135 0.317,-0.126 0.356,-0.126C0.39,-0.126 0.422,-0.129 0.451,-0.136C0.48,-0.143 0.509,-0.154 0.54,-0.168L0.54,-0.031C0.513,-0.017 0.484,-0.007 0.453,-0C0.421,0.007 0.381,0.01 0.333,0.01C0.277,0.01 0.228,-0 0.184,-0.02C0.14,-0.04 0.105,-0.071 0.08,-0.112C0.055,-0.154 0.042,-0.208 0.042,-0.273C0.042,-0.339 0.053,-0.394 0.076,-0.437C0.099,-0.48 0.131,-0.511 0.172,-0.532C0.213,-0.553 0.261,-0.563 0.315,-0.563ZM0.322,-0.433C0.299,-0.433 0.281,-0.426 0.265,-0.412C0.25,-0.398 0.241,-0.375 0.239,-0.345L0.403,-0.345C0.403,-0.361 0.399,-0.376 0.393,-0.39C0.387,-0.403 0.378,-0.414 0.366,-0.421C0.354,-0.429 0.339,-0.433 0.322,-0.433Z" style="fill:rgb(30,148,0);fill-rule:nonzero;"/>
            </g>
            <g transform="matrix(54.1664,0,0,54.1664,355.25,414.749)">
                <path d="M0.477,-0.17C0.477,-0.135 0.469,-0.104 0.454,-0.077C0.438,-0.05 0.413,-0.028 0.379,-0.013C0.344,0.002 0.299,0.01 0.243,0.01C0.204,0.01 0.169,0.008 0.137,0.003C0.106,-0.001 0.075,-0.009 0.043,-0.021L0.043,-0.174C0.078,-0.158 0.113,-0.146 0.149,-0.139C0.186,-0.132 0.214,-0.129 0.235,-0.129C0.256,-0.129 0.272,-0.131 0.282,-0.136C0.292,-0.141 0.297,-0.148 0.297,-0.157C0.297,-0.165 0.294,-0.172 0.287,-0.178C0.28,-0.184 0.268,-0.19 0.251,-0.198C0.234,-0.205 0.21,-0.215 0.179,-0.228C0.149,-0.241 0.123,-0.255 0.103,-0.27C0.082,-0.285 0.067,-0.302 0.057,-0.323C0.047,-0.344 0.042,-0.37 0.042,-0.4C0.042,-0.454 0.063,-0.495 0.104,-0.522C0.146,-0.549 0.201,-0.563 0.27,-0.563C0.306,-0.563 0.341,-0.559 0.373,-0.551C0.405,-0.543 0.439,-0.531 0.473,-0.516L0.421,-0.393C0.394,-0.405 0.366,-0.415 0.338,-0.423C0.31,-0.43 0.288,-0.434 0.271,-0.434C0.256,-0.434 0.244,-0.432 0.236,-0.428C0.228,-0.424 0.224,-0.419 0.224,-0.411C0.224,-0.404 0.227,-0.398 0.233,-0.393C0.238,-0.388 0.249,-0.382 0.265,-0.375C0.281,-0.368 0.304,-0.359 0.335,-0.346C0.367,-0.333 0.394,-0.319 0.415,-0.304C0.436,-0.29 0.451,-0.272 0.462,-0.25C0.472,-0.229 0.477,-0.202 0.477,-0.17Z" style="fill:rgb(30,148,0);fill-rule:nonzero;"/>
            </g>
            <g transform="matrix(54.1664,0,0,54.1664,381.064,414.749)">
                <path d="M0.315,-0.563C0.369,-0.563 0.415,-0.554 0.454,-0.535C0.493,-0.516 0.523,-0.488 0.544,-0.451C0.566,-0.413 0.576,-0.366 0.576,-0.31L0.576,-0.225L0.235,-0.225C0.236,-0.196 0.247,-0.172 0.267,-0.154C0.287,-0.135 0.317,-0.126 0.356,-0.126C0.39,-0.126 0.422,-0.129 0.451,-0.136C0.48,-0.143 0.509,-0.154 0.54,-0.168L0.54,-0.031C0.513,-0.017 0.484,-0.007 0.453,-0C0.421,0.007 0.381,0.01 0.333,0.01C0.277,0.01 0.228,-0 0.184,-0.02C0.14,-0.04 0.105,-0.071 0.08,-0.112C0.055,-0.154 0.042,-0.208 0.042,-0.273C0.042,-0.339 0.053,-0.394 0.076,-0.437C0.099,-0.48 0.131,-0.511 0.172,-0.532C0.213,-0.553 0.261,-0.563 0.315,-0.563ZM0.322,-0.433C0.299,-0.433 0.281,-0.426 0.265,-0.412C0.25,-0.398 0.241,-0.375 0.239,-0.345L0.403,-0.345C0.403,-0.361 0.399,-0.376 0.393,-0.39C0.387,-0.403 0.378,-0.414 0.366,-0.421C0.354,-0.429 0.339,-0.433 0.322,-0.433Z" style="fill:rgb(30,148,0);fill-rule:nonzero;"/>
            </g>
            <g transform="matrix(54.1664,0,0,54.1664,411.48,414.749)">
                <path d="M0.336,-0.563C0.406,-0.563 0.461,-0.546 0.5,-0.511C0.539,-0.476 0.559,-0.427 0.559,-0.363L0.559,-0L0.427,-0L0.39,-0.073L0.386,-0.073C0.371,-0.054 0.355,-0.038 0.338,-0.026C0.322,-0.013 0.303,-0.004 0.282,0.001C0.261,0.007 0.235,0.01 0.204,0.01C0.172,0.01 0.144,0.003 0.118,-0.01C0.093,-0.023 0.073,-0.042 0.058,-0.069C0.043,-0.095 0.036,-0.129 0.036,-0.169C0.036,-0.228 0.057,-0.272 0.098,-0.301C0.139,-0.329 0.198,-0.346 0.276,-0.349L0.368,-0.352L0.368,-0.36C0.368,-0.385 0.362,-0.402 0.35,-0.413C0.338,-0.423 0.321,-0.428 0.301,-0.428C0.279,-0.428 0.255,-0.424 0.228,-0.417C0.201,-0.409 0.174,-0.399 0.147,-0.387L0.092,-0.513C0.124,-0.529 0.16,-0.542 0.2,-0.55C0.241,-0.559 0.286,-0.563 0.336,-0.563ZM0.369,-0.247L0.325,-0.245C0.29,-0.244 0.265,-0.238 0.251,-0.227C0.237,-0.216 0.23,-0.2 0.23,-0.18C0.23,-0.161 0.235,-0.147 0.245,-0.138C0.255,-0.129 0.269,-0.125 0.285,-0.125C0.308,-0.125 0.328,-0.132 0.344,-0.147C0.361,-0.162 0.369,-0.181 0.369,-0.204L0.369,-0.247Z" style="fill:rgb(30,148,0);fill-rule:nonzero;"/>
            </g>
            <g transform="matrix(54.1664,0,0,54.1664,441.578,414.749)">
                <path d="M0.4,-0.563C0.41,-0.563 0.421,-0.562 0.433,-0.561C0.444,-0.559 0.452,-0.558 0.458,-0.557L0.441,-0.377C0.435,-0.379 0.427,-0.38 0.417,-0.381C0.407,-0.382 0.394,-0.383 0.376,-0.383C0.364,-0.383 0.351,-0.382 0.337,-0.379C0.324,-0.377 0.311,-0.372 0.299,-0.365C0.286,-0.358 0.276,-0.347 0.269,-0.332C0.261,-0.317 0.257,-0.297 0.257,-0.272L0.257,-0L0.066,-0L0.066,-0.553L0.208,-0.553L0.238,-0.465L0.247,-0.465C0.257,-0.483 0.27,-0.5 0.286,-0.514C0.302,-0.529 0.319,-0.541 0.339,-0.55C0.359,-0.559 0.379,-0.563 0.4,-0.563Z" style="fill:rgb(30,148,0);fill-rule:nonzero;"/>
            </g>
            <g transform="matrix(54.1664,0,0,54.1664,463.715,414.749)">
                <path d="M0.318,0.01C0.262,0.01 0.213,-0 0.172,-0.02C0.131,-0.04 0.099,-0.071 0.076,-0.113C0.053,-0.155 0.042,-0.208 0.042,-0.274C0.042,-0.341 0.055,-0.396 0.08,-0.438C0.105,-0.481 0.14,-0.513 0.184,-0.533C0.228,-0.553 0.277,-0.563 0.333,-0.563C0.367,-0.563 0.399,-0.559 0.429,-0.552C0.46,-0.544 0.488,-0.534 0.514,-0.521L0.458,-0.38C0.435,-0.39 0.414,-0.398 0.394,-0.404C0.375,-0.41 0.354,-0.413 0.333,-0.413C0.314,-0.413 0.297,-0.408 0.282,-0.398C0.268,-0.388 0.256,-0.373 0.248,-0.352C0.24,-0.332 0.236,-0.306 0.236,-0.275C0.236,-0.243 0.24,-0.217 0.248,-0.198C0.257,-0.178 0.268,-0.164 0.283,-0.155C0.298,-0.146 0.315,-0.142 0.334,-0.142C0.362,-0.142 0.389,-0.146 0.417,-0.155C0.444,-0.164 0.47,-0.176 0.495,-0.191L0.495,-0.039C0.472,-0.024 0.447,-0.012 0.418,-0.003C0.389,0.005 0.356,0.01 0.318,0.01Z" style="fill:rgb(30,148,0);fill-rule:nonzero;"/>
            </g>
            <g transform="matrix(54.1664,0,0,54.1664,489.661,414.749)">
                <path d="M0.257,-0.76L0.257,-0.652C0.257,-0.611 0.256,-0.576 0.254,-0.549C0.252,-0.521 0.251,-0.5 0.249,-0.485L0.258,-0.485C0.27,-0.504 0.284,-0.519 0.299,-0.531C0.314,-0.542 0.331,-0.55 0.35,-0.555C0.368,-0.56 0.388,-0.563 0.41,-0.563C0.447,-0.563 0.48,-0.556 0.509,-0.542C0.538,-0.528 0.562,-0.506 0.58,-0.476C0.597,-0.447 0.606,-0.408 0.606,-0.36L0.606,-0L0.414,-0L0.414,-0.302C0.414,-0.339 0.409,-0.366 0.398,-0.385C0.387,-0.404 0.371,-0.413 0.348,-0.413C0.325,-0.413 0.307,-0.406 0.293,-0.393C0.28,-0.38 0.271,-0.361 0.265,-0.336C0.26,-0.31 0.257,-0.28 0.257,-0.243L0.257,-0L0.066,-0L0.066,-0.76L0.257,-0.76Z" style="fill:rgb(30,148,0);fill-rule:nonzero;"/>
            </g>
            <g transform="matrix(54.1664,0,0,54.1664,536.951,414.749)">
                <path d="M0.404,-0.563C0.465,-0.563 0.513,-0.538 0.548,-0.49C0.583,-0.441 0.6,-0.37 0.6,-0.278C0.6,-0.215 0.591,-0.162 0.574,-0.119C0.556,-0.077 0.532,-0.044 0.502,-0.023C0.471,-0.001 0.437,0.01 0.398,0.01C0.372,0.01 0.35,0.007 0.332,-0C0.314,-0.007 0.299,-0.015 0.287,-0.024C0.275,-0.034 0.265,-0.044 0.257,-0.054L0.251,-0.054C0.253,-0.042 0.254,-0.028 0.255,-0.013C0.256,0.001 0.257,0.019 0.257,0.038L0.257,0.24L0.066,0.24L0.066,-0.553L0.221,-0.553L0.248,-0.483L0.257,-0.483C0.266,-0.497 0.277,-0.51 0.29,-0.523C0.303,-0.535 0.319,-0.545 0.338,-0.552C0.356,-0.559 0.378,-0.563 0.404,-0.563ZM0.332,-0.413C0.313,-0.413 0.299,-0.409 0.288,-0.4C0.277,-0.391 0.27,-0.378 0.265,-0.36C0.26,-0.342 0.257,-0.32 0.257,-0.294L0.257,-0.279C0.257,-0.25 0.259,-0.225 0.264,-0.205C0.268,-0.185 0.276,-0.17 0.287,-0.159C0.298,-0.149 0.313,-0.144 0.333,-0.144C0.349,-0.144 0.362,-0.149 0.373,-0.158C0.384,-0.167 0.392,-0.181 0.397,-0.201C0.403,-0.221 0.406,-0.247 0.406,-0.28C0.406,-0.328 0.399,-0.363 0.387,-0.383C0.374,-0.403 0.356,-0.413 0.332,-0.413Z" style="fill:rgb(30,148,0);fill-rule:nonzero;"/>
            </g>
            <g transform="matrix(54.1664,0,0,54.1664,570.091,414.749)">
                <path d="M0.4,-0.563C0.41,-0.563 0.421,-0.562 0.433,-0.561C0.444,-0.559 0.452,-0.558 0.458,-0.557L0.441,-0.377C0.435,-0.379 0.427,-0.38 0.417,-0.381C0.407,-0.382 0.394,-0.383 0.376,-0.383C0.364,-0.383 0.351,-0.382 0.337,-0.379C0.324,-0.377 0.311,-0.372 0.299,-0.365C0.286,-0.358 0.276,-0.347 0.269,-0.332C0.261,-0.317 0.257,-0.297 0.257,-0.272L0.257,-0L0.066,-0L0.066,-0.553L0.208,-0.553L0.238,-0.465L0.247,-0.465C0.257,-0.483 0.27,-0.5 0.286,-0.514C0.302,-0.529 0.319,-0.541 0.339,-0.55C0.359,-0.559 0.379,-0.563 0.4,-0.563Z" style="fill:rgb(30,148,0);fill-rule:nonzero;"/>
            </g>
            <g transform="matrix(54.1664,0,0,54.1664,592.228,414.749)">
                <path d="M0.594,-0.278C0.594,-0.232 0.588,-0.191 0.575,-0.155C0.563,-0.119 0.544,-0.089 0.52,-0.064C0.496,-0.04 0.467,-0.022 0.433,-0.009C0.398,0.003 0.36,0.01 0.317,0.01C0.277,0.01 0.24,0.003 0.207,-0.009C0.173,-0.022 0.144,-0.04 0.12,-0.064C0.095,-0.089 0.076,-0.119 0.062,-0.155C0.049,-0.191 0.042,-0.232 0.042,-0.278C0.042,-0.339 0.053,-0.391 0.075,-0.433C0.098,-0.475 0.13,-0.508 0.171,-0.53C0.213,-0.552 0.262,-0.563 0.32,-0.563C0.373,-0.563 0.42,-0.552 0.461,-0.53C0.503,-0.508 0.535,-0.475 0.559,-0.433C0.582,-0.391 0.594,-0.339 0.594,-0.278ZM0.236,-0.278C0.236,-0.246 0.239,-0.22 0.244,-0.198C0.25,-0.176 0.259,-0.16 0.271,-0.149C0.283,-0.137 0.299,-0.132 0.319,-0.132C0.339,-0.132 0.354,-0.137 0.366,-0.149C0.378,-0.16 0.386,-0.176 0.392,-0.198C0.397,-0.22 0.4,-0.246 0.4,-0.278C0.4,-0.309 0.397,-0.336 0.392,-0.357C0.386,-0.378 0.378,-0.394 0.366,-0.405C0.354,-0.416 0.338,-0.421 0.318,-0.421C0.289,-0.421 0.268,-0.409 0.255,-0.385C0.242,-0.361 0.236,-0.325 0.236,-0.278Z" style="fill:rgb(30,148,0);fill-rule:nonzero;"/>
            </g>
            <g transform="matrix(54.1664,0,0,54.1664,624.813,414.749)">
                <path d="M0.052,0.24C0.036,0.24 0.019,0.239 -0.001,0.237C-0.021,0.234 -0.038,0.231 -0.051,0.228L-0.051,0.079C-0.04,0.082 -0.031,0.084 -0.022,0.086C-0.013,0.087 -0.003,0.088 0.008,0.088C0.023,0.088 0.037,0.082 0.049,0.072C0.06,0.061 0.066,0.038 0.066,0.005L0.066,-0.553L0.257,-0.553L0.257,0.045C0.257,0.078 0.25,0.11 0.237,0.139C0.224,0.169 0.203,0.193 0.173,0.212C0.143,0.231 0.103,0.24 0.052,0.24ZM0.061,-0.691C0.061,-0.725 0.071,-0.747 0.091,-0.759C0.11,-0.77 0.134,-0.776 0.162,-0.776C0.189,-0.776 0.213,-0.77 0.234,-0.759C0.254,-0.747 0.264,-0.725 0.264,-0.691C0.264,-0.658 0.254,-0.636 0.234,-0.624C0.213,-0.613 0.189,-0.607 0.162,-0.607C0.134,-0.607 0.11,-0.613 0.091,-0.624C0.071,-0.636 0.061,-0.658 0.061,-0.691Z" style="fill:rgb(30,148,0);fill-rule:nonzero;"/>
            </g>
            <g transform="matrix(54.1664,0,0,54.1664,638.487,414.749)">
                <path d="M0.315,-0.563C0.369,-0.563 0.415,-0.554 0.454,-0.535C0.493,-0.516 0.523,-0.488 0.544,-0.451C0.566,-0.413 0.576,-0.366 0.576,-0.31L0.576,-0.225L0.235,-0.225C0.236,-0.196 0.247,-0.172 0.267,-0.154C0.287,-0.135 0.317,-0.126 0.356,-0.126C0.39,-0.126 0.422,-0.129 0.451,-0.136C0.48,-0.143 0.509,-0.154 0.54,-0.168L0.54,-0.031C0.513,-0.017 0.484,-0.007 0.453,-0C0.421,0.007 0.381,0.01 0.333,0.01C0.277,0.01 0.228,-0 0.184,-0.02C0.14,-0.04 0.105,-0.071 0.08,-0.112C0.055,-0.154 0.042,-0.208 0.042,-0.273C0.042,-0.339 0.053,-0.394 0.076,-0.437C0.099,-0.48 0.131,-0.511 0.172,-0.532C0.213,-0.553 0.261,-0.563 0.315,-0.563ZM0.322,-0.433C0.299,-0.433 0.281,-0.426 0.265,-0.412C0.25,-0.398 0.241,-0.375 0.239,-0.345L0.403,-0.345C0.403,-0.361 0.399,-0.376 0.393,-0.39C0.387,-0.403 0.378,-0.414 0.366,-0.421C0.354,-0.429 0.339,-0.433 0.322,-0.433Z" style="fill:rgb(30,148,0);fill-rule:nonzero;"/>
            </g>
            <g transform="matrix(54.1664,0,0,54.1664,668.902,414.749)">
                <path d="M0.318,0.01C0.262,0.01 0.213,-0 0.172,-0.02C0.131,-0.04 0.099,-0.071 0.076,-0.113C0.053,-0.155 0.042,-0.208 0.042,-0.274C0.042,-0.341 0.055,-0.396 0.08,-0.438C0.105,-0.481 0.14,-0.513 0.184,-0.533C0.228,-0.553 0.277,-0.563 0.333,-0.563C0.367,-0.563 0.399,-0.559 0.429,-0.552C0.46,-0.544 0.488,-0.534 0.514,-0.521L0.458,-0.38C0.435,-0.39 0.414,-0.398 0.394,-0.404C0.375,-0.41 0.354,-0.413 0.333,-0.413C0.314,-0.413 0.297,-0.408 0.282,-0.398C0.268,-0.388 0.256,-0.373 0.248,-0.352C0.24,-0.332 0.236,-0.306 0.236,-0.275C0.236,-0.243 0.24,-0.217 0.248,-0.198C0.257,-0.178 0.268,-0.164 0.283,-0.155C0.298,-0.146 0.315,-0.142 0.334,-0.142C0.362,-0.142 0.389,-0.146 0.417,-0.155C0.444,-0.164 0.47,-0.176 0.495,-0.191L0.495,-0.039C0.472,-0.024 0.447,-0.012 0.418,-0.003C0.389,0.005 0.356,0.01 0.318,0.01Z" style="fill:rgb(30,148,0);fill-rule:nonzero;"/>
            </g>
            <g transform="matrix(54.1664,0,0,54.1664,694.848,414.749)">
                <path d="M0.337,-0.141C0.354,-0.141 0.37,-0.143 0.384,-0.146C0.399,-0.15 0.414,-0.155 0.429,-0.16L0.429,-0.021C0.408,-0.012 0.386,-0.004 0.363,0.001C0.34,0.007 0.31,0.01 0.274,0.01C0.238,0.01 0.207,0.004 0.179,-0.007C0.152,-0.018 0.131,-0.038 0.115,-0.066C0.1,-0.094 0.093,-0.132 0.093,-0.182L0.093,-0.41L0.026,-0.41L0.026,-0.488L0.111,-0.548L0.16,-0.664L0.285,-0.664L0.285,-0.553L0.421,-0.553L0.421,-0.41L0.285,-0.41L0.285,-0.195C0.285,-0.177 0.29,-0.163 0.299,-0.155C0.308,-0.146 0.321,-0.141 0.337,-0.141Z" style="fill:rgb(30,148,0);fill-rule:nonzero;"/>
            </g>
        </g>
        <g transform="matrix(8.42525,0,0,15.4051,-1469.61,-4106.44)">
            <g transform="matrix(12,0,0,12,201.196,283.287)">
                <path d="M0.501,-0L0.077,-0L0.077,-0.714L0.501,-0.714L0.501,-0.559L0.27,-0.559L0.27,-0.447L0.484,-0.447L0.484,-0.292L0.27,-0.292L0.27,-0.157L0.501,-0.157L0.501,-0Z" style="fill-rule:nonzero;"/>
            </g>
            <g transform="matrix(12,0,0,12,207.864,283.287)">
                <path d="M0.604,-0.553L0.604,-0L0.46,-0L0.436,-0.069L0.425,-0.069C0.413,-0.05 0.399,-0.035 0.382,-0.024C0.364,-0.012 0.345,-0.004 0.324,0.002C0.303,0.007 0.281,0.01 0.258,0.01C0.222,0.01 0.189,0.003 0.16,-0.011C0.131,-0.025 0.108,-0.047 0.091,-0.077C0.073,-0.107 0.065,-0.146 0.065,-0.193L0.065,-0.553L0.256,-0.553L0.256,-0.251C0.256,-0.215 0.261,-0.188 0.271,-0.169C0.281,-0.15 0.298,-0.141 0.322,-0.141C0.346,-0.141 0.365,-0.148 0.378,-0.161C0.391,-0.174 0.4,-0.193 0.405,-0.218C0.41,-0.244 0.413,-0.275 0.413,-0.311L0.413,-0.553L0.604,-0.553Z" style="fill-rule:nonzero;"/>
            </g>
            <g transform="matrix(12,0,0,12,215.223,283.287)">
                <path d="M0.4,-0.563C0.41,-0.563 0.421,-0.562 0.433,-0.561C0.444,-0.559 0.452,-0.558 0.458,-0.557L0.441,-0.377C0.435,-0.379 0.427,-0.38 0.417,-0.381C0.407,-0.382 0.394,-0.383 0.376,-0.383C0.364,-0.383 0.351,-0.382 0.337,-0.379C0.324,-0.377 0.311,-0.372 0.299,-0.365C0.286,-0.358 0.276,-0.347 0.269,-0.332C0.261,-0.317 0.257,-0.297 0.257,-0.272L0.257,-0L0.066,-0L0.066,-0.553L0.208,-0.553L0.238,-0.465L0.247,-0.465C0.257,-0.483 0.27,-0.5 0.286,-0.514C0.302,-0.529 0.319,-0.541 0.339,-0.55C0.359,-0.559 0.379,-0.563 0.4,-0.563Z" style="fill-rule:nonzero;"/>
            </g>
            <g transform="matrix(12,0,0,12,220.127,283.287)">
                <path d="M0.594,-0.278C0.594,-0.232 0.588,-0.191 0.575,-0.155C0.563,-0.119 0.544,-0.089 0.52,-0.064C0.496,-0.04 0.467,-0.022 0.433,-0.009C0.398,0.003 0.36,0.01 0.317,0.01C0.277,0.01 0.24,0.003 0.207,-0.009C0.173,-0.022 0.144,-0.04 0.12,-0.064C0.095,-0.089 0.076,-0.119 0.062,-0.155C0.049,-0.191 0.042,-0.232 0.042,-0.278C0.042,-0.339 0.053,-0.391 0.075,-0.433C0.098,-0.475 0.13,-0.508 0.171,-0.53C0.213,-0.552 0.262,-0.563 0.32,-0.563C0.373,-0.563 0.42,-0.552 0.461,-0.53C0.503,-0.508 0.535,-0.475 0.559,-0.433C0.582,-0.391 0.594,-0.339 0.594,-0.278ZM0.236,-0.278C0.236,-0.246 0.239,-0.22 0.244,-0.198C0.25,-0.176 0.259,-0.16 0.271,-0.149C0.283,-0.137 0.299,-0.132 0.319,-0.132C0.339,-0.132 0.354,-0.137 0.366,-0.149C0.378,-0.16 0.386,-0.176 0.392,-0.198C0.397,-0.22 0.4,-0.246 0.4,-0.278C0.4,-0.309 0.397,-0.336 0.392,-0.357C0.386,-0.378 0.378,-0.394 0.366,-0.405C0.354,-0.416 0.338,-0.421 0.318,-0.421C0.289,-0.421 0.268,-0.409 0.255,-0.385C0.242,-0.361 0.236,-0.325 0.236,-0.278Z" style="fill-rule:nonzero;"/>
            </g>
            <g transform="matrix(12,0,0,12,227.346,283.287)">
                <path d="M0.267,-0L0.077,-0L0.077,-0.714L0.499,-0.714L0.499,-0.559L0.267,-0.559L0.267,-0.423L0.481,-0.423L0.481,-0.268L0.267,-0.268L0.267,-0Z" style="fill-rule:nonzero;"/>
            </g>
            <g transform="matrix(12,0,0,12,233.54,283.287)">
                <path d="M0.336,-0.563C0.406,-0.563 0.461,-0.546 0.5,-0.511C0.539,-0.476 0.559,-0.427 0.559,-0.363L0.559,-0L0.427,-0L0.39,-0.073L0.386,-0.073C0.371,-0.054 0.355,-0.038 0.338,-0.026C0.322,-0.013 0.303,-0.004 0.282,0.001C0.261,0.007 0.235,0.01 0.204,0.01C0.172,0.01 0.144,0.003 0.118,-0.01C0.093,-0.023 0.073,-0.042 0.058,-0.069C0.043,-0.095 0.036,-0.129 0.036,-0.169C0.036,-0.228 0.057,-0.272 0.098,-0.301C0.139,-0.329 0.198,-0.346 0.276,-0.349L0.368,-0.352L0.368,-0.36C0.368,-0.385 0.362,-0.402 0.35,-0.413C0.338,-0.423 0.321,-0.428 0.301,-0.428C0.279,-0.428 0.255,-0.424 0.228,-0.417C0.201,-0.409 0.174,-0.399 0.147,-0.387L0.092,-0.513C0.124,-0.529 0.16,-0.542 0.2,-0.55C0.241,-0.559 0.286,-0.563 0.336,-0.563ZM0.369,-0.247L0.325,-0.245C0.29,-0.244 0.265,-0.238 0.251,-0.227C0.237,-0.216 0.23,-0.2 0.23,-0.18C0.23,-0.161 0.235,-0.147 0.245,-0.138C0.255,-0.129 0.269,-0.125 0.285,-0.125C0.308,-0.125 0.328,-0.132 0.344,-0.147C0.361,-0.162 0.369,-0.181 0.369,-0.204L0.369,-0.247Z" style="fill-rule:nonzero;"/>
            </g>
            <g transform="matrix(12,0,0,12,240.207,283.287)">
                <path d="M0.257,-0.76L0.257,-0.588C0.257,-0.568 0.256,-0.55 0.255,-0.532C0.254,-0.514 0.252,-0.498 0.25,-0.482L0.257,-0.482C0.271,-0.504 0.29,-0.524 0.313,-0.539C0.336,-0.555 0.366,-0.563 0.404,-0.563C0.461,-0.563 0.509,-0.539 0.545,-0.49C0.582,-0.441 0.6,-0.37 0.6,-0.278C0.6,-0.215 0.592,-0.162 0.575,-0.119C0.558,-0.077 0.534,-0.044 0.504,-0.023C0.473,-0.001 0.438,0.01 0.398,0.01C0.359,0.01 0.329,0.003 0.309,-0.01C0.288,-0.024 0.271,-0.039 0.257,-0.054L0.245,-0.054L0.215,-0L0.066,-0L0.066,-0.76L0.257,-0.76ZM0.334,-0.413C0.316,-0.413 0.302,-0.409 0.291,-0.401C0.279,-0.393 0.271,-0.38 0.265,-0.363C0.26,-0.346 0.257,-0.324 0.257,-0.298L0.257,-0.271C0.257,-0.228 0.263,-0.196 0.274,-0.175C0.286,-0.154 0.306,-0.144 0.336,-0.144C0.358,-0.144 0.376,-0.156 0.388,-0.179C0.4,-0.202 0.406,-0.236 0.406,-0.28C0.406,-0.324 0.4,-0.357 0.388,-0.38C0.376,-0.402 0.358,-0.413 0.334,-0.413Z" style="fill-rule:nonzero;"/>
            </g>
        </g>
        <g transform="matrix(0.161505,0,0,0.295302,350.998,176.454)">
            <g transform="matrix(127.128,0,0,127.128,258.529,414.749)">
                <path d="M0.501,-0L0.077,-0L0.077,-0.714L0.501,-0.714L0.501,-0.559L0.27,-0.559L0.27,-0.447L0.484,-0.447L0.484,-0.292L0.27,-0.292L0.27,-0.157L0.501,-0.157L0.501,-0Z" style="fill-rule:nonzero;"/>
            </g>
            <g transform="matrix(127.128,0,0,127.128,329.169,414.749)">
                <path d="M0.604,-0.553L0.604,-0L0.46,-0L0.436,-0.069L0.425,-0.069C0.413,-0.05 0.399,-0.035 0.382,-0.024C0.364,-0.012 0.345,-0.004 0.324,0.002C0.303,0.007 0.281,0.01 0.258,0.01C0.222,0.01 0.189,0.003 0.16,-0.011C0.131,-0.025 0.108,-0.047 0.091,-0.077C0.073,-0.107 0.065,-0.146 0.065,-0.193L0.065,-0.553L0.256,-0.553L0.256,-0.251C0.256,-0.215 0.261,-0.188 0.271,-0.169C0.281,-0.15 0.298,-0.141 0.322,-0.141C0.346,-0.141 0.365,-0.148 0.378,-0.161C0.391,-0.174 0.4,-0.193 0.405,-0.218C0.41,-0.244 0.413,-0.275 0.413,-0.311L0.413,-0.553L0.604,-0.553Z" style="fill-rule:nonzero;"/>
            </g>
            <g transform="matrix(127.128,0,0,127.128,407.134,414.749)">
                <path d="M0.4,-0.563C0.41,-0.563 0.421,-0.562 0.433,-0.561C0.444,-0.559 0.452,-0.558 0.458,-0.557L0.441,-0.377C0.435,-0.379 0.427,-0.38 0.417,-0.381C0.407,-0.382 0.394,-0.383 0.376,-0.383C0.364,-0.383 0.351,-0.382 0.337,-0.379C0.324,-0.377 0.311,-0.372 0.299,-0.365C0.286,-0.358 0.276,-0.347 0.269,-0.332C0.261,-0.317 0.257,-0.297 0.257,-0.272L0.257,-0L0.066,-0L0.066,-0.553L0.208,-0.553L0.238,-0.465L0.247,-0.465C0.257,-0.483 0.27,-0.5 0.286,-0.514C0.302,-0.529 0.319,-0.541 0.339,-0.55C0.359,-0.559 0.379,-0.563 0.4,-0.563Z" style="fill-rule:nonzero;"/>
            </g>
            <g transform="matrix(127.128,0,0,127.128,459.091,414.749)">
                <path d="M0.594,-0.278C0.594,-0.232 0.588,-0.191 0.575,-0.155C0.563,-0.119 0.544,-0.089 0.52,-0.064C0.496,-0.04 0.467,-0.022 0.433,-0.009C0.398,0.003 0.36,0.01 0.317,0.01C0.277,0.01 0.24,0.003 0.207,-0.009C0.173,-0.022 0.144,-0.04 0.12,-0.064C0.095,-0.089 0.076,-0.119 0.062,-0.155C0.049,-0.191 0.042,-0.232 0.042,-0.278C0.042,-0.339 0.053,-0.391 0.075,-0.433C0.098,-0.475 0.13,-0.508 0.171,-0.53C0.213,-0.552 0.262,-0.563 0.32,-0.563C0.373,-0.563 0.42,-0.552 0.461,-0.53C0.503,-0.508 0.535,-0.475 0.559,-0.433C0.582,-0.391 0.594,-0.339 0.594,-0.278ZM0.236,-0.278C0.236,-0.246 0.239,-0.22 0.244,-0.198C0.25,-0.176 0.259,-0.16 0.271,-0.149C0.283,-0.137 0.299,-0.132 0.319,-0.132C0.339,-0.132 0.354,-0.137 0.366,-0.149C0.378,-0.16 0.386,-0.176 0.392,-0.198C0.397,-0.22 0.4,-0.246 0.4,-0.278C0.4,-0.309 0.397,-0.336 0.392,-0.357C0.386,-0.378 0.378,-0.394 0.366,-0.405C0.354,-0.416 0.338,-0.421 0.318,-0.421C0.289,-0.421 0.268,-0.409 0.255,-0.385C0.242,-0.361 0.236,-0.325 0.236,-0.278Z" style="fill-rule:nonzero;"/>
            </g>
            <g transform="matrix(127.128,0,0,127.128,535.566,414.749)">
                <path d="M0.404,-0.563C0.465,-0.563 0.513,-0.538 0.548,-0.49C0.583,-0.441 0.6,-0.37 0.6,-0.278C0.6,-0.215 0.591,-0.162 0.574,-0.119C0.556,-0.077 0.532,-0.044 0.502,-0.023C0.471,-0.001 0.437,0.01 0.398,0.01C0.372,0.01 0.35,0.007 0.332,-0C0.314,-0.007 0.299,-0.015 0.287,-0.024C0.275,-0.034 0.265,-0.044 0.257,-0.054L0.251,-0.054C0.253,-0.042 0.254,-0.028 0.255,-0.013C0.256,0.001 0.257,0.019 0.257,0.038L0.257,0.24L0.066,0.24L0.066,-0.553L0.221,-0.553L0.248,-0.483L0.257,-0.483C0.266,-0.497 0.277,-0.51 0.29,-0.523C0.303,-0.535 0.319,-0.545 0.338,-0.552C0.356,-0.559 0.378,-0.563 0.404,-0.563ZM0.332,-0.413C0.313,-0.413 0.299,-0.409 0.288,-0.4C0.277,-0.391 0.27,-0.378 0.265,-0.36C0.26,-0.342 0.257,-0.32 0.257,-0.294L0.257,-0.279C0.257,-0.25 0.259,-0.225 0.264,-0.205C0.268,-0.185 0.276,-0.17 0.287,-0.159C0.298,-0.149 0.313,-0.144 0.333,-0.144C0.349,-0.144 0.362,-0.149 0.373,-0.158C0.384,-0.167 0.392,-0.181 0.397,-0.201C0.403,-0.221 0.406,-0.247 0.406,-0.28C0.406,-0.328 0.399,-0.363 0.387,-0.383C0.374,-0.403 0.356,-0.413 0.332,-0.413Z" style="fill-rule:nonzero;"/>
            </g>
            <g transform="matrix(127.128,0,0,127.128,613.345,414.749)">
                <path d="M0.315,-0.563C0.369,-0.563 0.415,-0.554 0.454,-0.535C0.493,-0.516 0.523,-0.488 0.544,-0.451C0.566,-0.413 0.576,-0.366 0.576,-0.31L0.576,-0.225L0.235,-0.225C0.236,-0.196 0.247,-0.172 0.267,-0.154C0.287,-0.135 0.317,-0.126 0.356,-0.126C0.39,-0.126 0.422,-0.129 0.451,-0.136C0.48,-0.143 0.509,-0.154 0.54,-0.168L0.54,-0.031C0.513,-0.017 0.484,-0.007 0.453,-0C0.421,0.007 0.381,0.01 0.333,0.01C0.277,0.01 0.228,-0 0.184,-0.02C0.14,-0.04 0.105,-0.071 0.08,-0.112C0.055,-0.154 0.042,-0.208 0.042,-0.273C0.042,-0.339 0.053,-0.394 0.076,-0.437C0.099,-0.48 0.131,-0.511 0.172,-0.532C0.213,-0.553 0.261,-0.563 0.315,-0.563ZM0.322,-0.433C0.299,-0.433 0.281,-0.426 0.265,-0.412C0.25,-0.398 0.241,-0.375 0.239,-0.345L0.403,-0.345C0.403,-0.361 0.399,-0.376 0.393,-0.39C0.387,-0.403 0.378,-0.414 0.366,-0.421C0.354,-0.429 0.339,-0.433 0.322,-0.433Z" style="fill-rule:nonzero;"/>
            </g>
            <g transform="matrix(127.128,0,0,127.128,684.731,414.749)">
                <path d="M0.336,-0.563C0.406,-0.563 0.461,-0.546 0.5,-0.511C0.539,-0.476 0.559,-0.427 0.559,-0.363L0.559,-0L0.427,-0L0.39,-0.073L0.386,-0.073C0.371,-0.054 0.355,-0.038 0.338,-0.026C0.322,-0.013 0.303,-0.004 0.282,0.001C0.261,0.007 0.235,0.01 0.204,0.01C0.172,0.01 0.144,0.003 0.118,-0.01C0.093,-0.023 0.073,-0.042 0.058,-0.069C0.043,-0.095 0.036,-0.129 0.036,-0.169C0.036,-0.228 0.057,-0.272 0.098,-0.301C0.139,-0.329 0.198,-0.346 0.276,-0.349L0.368,-0.352L0.368,-0.36C0.368,-0.385 0.362,-0.402 0.35,-0.413C0.338,-0.423 0.321,-0.428 0.301,-0.428C0.279,-0.428 0.255,-0.424 0.228,-0.417C0.201,-0.409 0.174,-0.399 0.147,-0.387L0.092,-0.513C0.124,-0.529 0.16,-0.542 0.2,-0.55C0.241,-0.559 0.286,-0.563 0.336,-0.563ZM0.369,-0.247L0.325,-0.245C0.29,-0.244 0.265,-0.238 0.251,-0.227C0.237,-0.216 0.23,-0.2 0.23,-0.18C0.23,-0.161 0.235,-0.147 0.245,-0.138C0.255,-0.129 0.269,-0.125 0.285,-0.125C0.308,-0.125 0.328,-0.132 0.344,-0.147C0.361,-0.162 0.369,-0.181 0.369,-0.204L0.369,-0.247Z" style="fill-rule:nonzero;"/>
            </g>
            <g transform="matrix(127.128,0,0,127.128,755.371,414.749)">
                <path d="M0.412,-0.563C0.469,-0.563 0.516,-0.547 0.552,-0.515C0.588,-0.482 0.606,-0.431 0.606,-0.36L0.606,-0L0.415,-0L0.415,-0.302C0.415,-0.339 0.41,-0.366 0.399,-0.385C0.389,-0.404 0.372,-0.413 0.348,-0.413C0.312,-0.413 0.288,-0.398 0.275,-0.369C0.263,-0.339 0.257,-0.297 0.257,-0.242L0.257,-0L0.066,-0L0.066,-0.553L0.21,-0.553L0.236,-0.48L0.243,-0.48C0.255,-0.498 0.269,-0.513 0.285,-0.525C0.301,-0.537 0.32,-0.547 0.341,-0.553C0.362,-0.56 0.386,-0.563 0.412,-0.563Z" style="fill-rule:nonzero;"/>
            </g>
            <g transform="matrix(127.128,0,0,127.128,866.36,414.749)">
                <path d="M0.684,-0.714L0.684,-0.284C0.684,-0.224 0.673,-0.172 0.65,-0.128C0.627,-0.084 0.593,-0.05 0.547,-0.026C0.502,-0.002 0.445,0.01 0.376,0.01C0.278,0.01 0.203,-0.015 0.151,-0.066C0.099,-0.116 0.073,-0.188 0.073,-0.28L0.073,-0.714L0.267,-0.714L0.267,-0.295C0.267,-0.244 0.277,-0.208 0.295,-0.185C0.314,-0.162 0.342,-0.151 0.379,-0.151C0.405,-0.151 0.427,-0.156 0.443,-0.166C0.46,-0.176 0.472,-0.191 0.48,-0.213C0.487,-0.234 0.491,-0.262 0.491,-0.296L0.491,-0.714L0.684,-0.714Z" style="fill-rule:nonzero;"/>
            </g>
            <g transform="matrix(127.128,0,0,127.128,959.037,414.749)">
                <path d="M0.4,-0.563C0.41,-0.563 0.421,-0.562 0.433,-0.561C0.444,-0.559 0.452,-0.558 0.458,-0.557L0.441,-0.377C0.435,-0.379 0.427,-0.38 0.417,-0.381C0.407,-0.382 0.394,-0.383 0.376,-0.383C0.364,-0.383 0.351,-0.382 0.337,-0.379C0.324,-0.377 0.311,-0.372 0.299,-0.365C0.286,-0.358 0.276,-0.347 0.269,-0.332C0.261,-0.317 0.257,-0.297 0.257,-0.272L0.257,-0L0.066,-0L0.066,-0.553L0.208,-0.553L0.238,-0.465L0.247,-0.465C0.257,-0.483 0.27,-0.5 0.286,-0.514C0.302,-0.529 0.319,-0.541 0.339,-0.55C0.359,-0.559 0.379,-0.563 0.4,-0.563Z" style="fill-rule:nonzero;"/>
            </g>
            <g transform="matrix(127.128,0,0,127.128,1010.99,414.749)">
                <path d="M0.257,-0.76L0.257,-0.588C0.257,-0.568 0.256,-0.55 0.255,-0.532C0.254,-0.514 0.252,-0.498 0.25,-0.482L0.257,-0.482C0.271,-0.504 0.29,-0.524 0.313,-0.539C0.336,-0.555 0.366,-0.563 0.404,-0.563C0.461,-0.563 0.509,-0.539 0.545,-0.49C0.582,-0.441 0.6,-0.37 0.6,-0.278C0.6,-0.215 0.592,-0.162 0.575,-0.119C0.558,-0.077 0.534,-0.044 0.504,-0.023C0.473,-0.001 0.438,0.01 0.398,0.01C0.359,0.01 0.329,0.003 0.309,-0.01C0.288,-0.024 0.271,-0.039 0.257,-0.054L0.245,-0.054L0.215,-0L0.066,-0L0.066,-0.76L0.257,-0.76ZM0.334,-0.413C0.316,-0.413 0.302,-0.409 0.291,-0.401C0.279,-0.393 0.271,-0.38 0.265,-0.363C0.26,-0.346 0.257,-0.324 0.257,-0.298L0.257,-0.271C0.257,-0.228 0.263,-0.196 0.274,-0.175C0.286,-0.154 0.306,-0.144 0.336,-0.144C0.358,-0.144 0.376,-0.156 0.388,-0.179C0.4,-0.202 0.406,-0.236 0.406,-0.28C0.406,-0.324 0.4,-0.357 0.388,-0.38C0.376,-0.402 0.358,-0.413 0.334,-0.413Z" style="fill-rule:nonzero;"/>
            </g>
            <g transform="matrix(127.128,0,0,127.128,1088.77,414.749)">
                <path d="M0.336,-0.563C0.406,-0.563 0.461,-0.546 0.5,-0.511C0.539,-0.476 0.559,-0.427 0.559,-0.363L0.559,-0L0.427,-0L0.39,-0.073L0.386,-0.073C0.371,-0.054 0.355,-0.038 0.338,-0.026C0.322,-0.013 0.303,-0.004 0.282,0.001C0.261,0.007 0.235,0.01 0.204,0.01C0.172,0.01 0.144,0.003 0.118,-0.01C0.093,-0.023 0.073,-0.042 0.058,-0.069C0.043,-0.095 0.036,-0.129 0.036,-0.169C0.036,-0.228 0.057,-0.272 0.098,-0.301C0.139,-0.329 0.198,-0.346 0.276,-0.349L0.368,-0.352L0.368,-0.36C0.368,-0.385 0.362,-0.402 0.35,-0.413C0.338,-0.423 0.321,-0.428 0.301,-0.428C0.279,-0.428 0.255,-0.424 0.228,-0.417C0.201,-0.409 0.174,-0.399 0.147,-0.387L0.092,-0.513C0.124,-0.529 0.16,-0.542 0.2,-0.55C0.241,-0.559 0.286,-0.563 0.336,-0.563ZM0.369,-0.247L0.325,-0.245C0.29,-0.244 0.265,-0.238 0.251,-0.227C0.237,-0.216 0.23,-0.2 0.23,-0.18C0.23,-0.161 0.235,-0.147 0.245,-0.138C0.255,-0.129 0.269,-0.125 0.285,-0.125C0.308,-0.125 0.328,-0.132 0.344,-0.147C0.361,-0.162 0.369,-0.181 0.369,-0.204L0.369,-0.247Z" style="fill-rule:nonzero;"/>
            </g>
            <g transform="matrix(127.128,0,0,127.128,1159.41,414.749)">
                <path d="M0.412,-0.563C0.469,-0.563 0.516,-0.547 0.552,-0.515C0.588,-0.482 0.606,-0.431 0.606,-0.36L0.606,-0L0.415,-0L0.415,-0.302C0.415,-0.339 0.41,-0.366 0.399,-0.385C0.389,-0.404 0.372,-0.413 0.348,-0.413C0.312,-0.413 0.288,-0.398 0.275,-0.369C0.263,-0.339 0.257,-0.297 0.257,-0.242L0.257,-0L0.066,-0L0.066,-0.553L0.21,-0.553L0.236,-0.48L0.243,-0.48C0.255,-0.498 0.269,-0.513 0.285,-0.525C0.301,-0.537 0.32,-0.547 0.341,-0.553C0.362,-0.56 0.386,-0.563 0.412,-0.563Z" style="fill-rule:nonzero;"/>
            </g>
            <g transform="matrix(127.128,0,0,127.128,1270.4,414.749)">
                <path d="M0.267,-0L0.077,-0L0.077,-0.714L0.499,-0.714L0.499,-0.559L0.267,-0.559L0.267,-0.423L0.481,-0.423L0.481,-0.268L0.267,-0.268L0.267,-0Z" style="fill-rule:nonzero;"/>
            </g>
            <g transform="matrix(127.128,0,0,127.128,1336.01,414.749)">
                <path d="M0.336,-0.563C0.406,-0.563 0.461,-0.546 0.5,-0.511C0.539,-0.476 0.559,-0.427 0.559,-0.363L0.559,-0L0.427,-0L0.39,-0.073L0.386,-0.073C0.371,-0.054 0.355,-0.038 0.338,-0.026C0.322,-0.013 0.303,-0.004 0.282,0.001C0.261,0.007 0.235,0.01 0.204,0.01C0.172,0.01 0.144,0.003 0.118,-0.01C0.093,-0.023 0.073,-0.042 0.058,-0.069C0.043,-0.095 0.036,-0.129 0.036,-0.169C0.036,-0.228 0.057,-0.272 0.098,-0.301C0.139,-0.329 0.198,-0.346 0.276,-0.349L0.368,-0.352L0.368,-0.36C0.368,-0.385 0.362,-0.402 0.35,-0.413C0.338,-0.423 0.321,-0.428 0.301,-0.428C0.279,-0.428 0.255,-0.424 0.228,-0.417C0.201,-0.409 0.174,-0.399 0.147,-0.387L0.092,-0.513C0.124,-0.529 0.16,-0.542 0.2,-0.55C0.241,-0.559 0.286,-0.563 0.336,-0.563ZM0.369,-0.247L0.325,-0.245C0.29,-0.244 0.265,-0.238 0.251,-0.227C0.237,-0.216 0.23,-0.2 0.23,-0.18C0.23,-0.161 0.235,-0.147 0.245,-0.138C0.255,-0.129 0.269,-0.125 0.285,-0.125C0.308,-0.125 0.328,-0.132 0.344,-0.147C0.361,-0.162 0.369,-0.181 0.369,-0.204L0.369,-0.247Z" style="fill-rule:nonzero;"/>
            </g>
            <g transform="matrix(127.128,0,0,127.128,1406.65,414.749)">
                <path d="M0.257,-0.76L0.257,-0.588C0.257,-0.568 0.256,-0.55 0.255,-0.532C0.254,-0.514 0.252,-0.498 0.25,-0.482L0.257,-0.482C0.271,-0.504 0.29,-0.524 0.313,-0.539C0.336,-0.555 0.366,-0.563 0.404,-0.563C0.461,-0.563 0.509,-0.539 0.545,-0.49C0.582,-0.441 0.6,-0.37 0.6,-0.278C0.6,-0.215 0.592,-0.162 0.575,-0.119C0.558,-0.077 0.534,-0.044 0.504,-0.023C0.473,-0.001 0.438,0.01 0.398,0.01C0.359,0.01 0.329,0.003 0.309,-0.01C0.288,-0.024 0.271,-0.039 0.257,-0.054L0.245,-0.054L0.215,-0L0.066,-0L0.066,-0.76L0.257,-0.76ZM0.334,-0.413C0.316,-0.413 0.302,-0.409 0.291,-0.401C0.279,-0.393 0.271,-0.38 0.265,-0.363C0.26,-0.346 0.257,-0.324 0.257,-0.298L0.257,-0.271C0.257,-0.228 0.263,-0.196 0.274,-0.175C0.286,-0.154 0.306,-0.144 0.336,-0.144C0.358,-0.144 0.376,-0.156 0.388,-0.179C0.4,-0.202 0.406,-0.236 0.406,-0.28C0.406,-0.324 0.4,-0.357 0.388,-0.38C0.376,-0.402 0.358,-0.413 0.334,-0.413Z" style="fill-rule:nonzero;"/>
            </g>
            <g transform="matrix(127.128,0,0,127.128,1484.43,414.749)">
                <path d="M0.4,-0.563C0.41,-0.563 0.421,-0.562 0.433,-0.561C0.444,-0.559 0.452,-0.558 0.458,-0.557L0.441,-0.377C0.435,-0.379 0.427,-0.38 0.417,-0.381C0.407,-0.382 0.394,-0.383 0.376,-0.383C0.364,-0.383 0.351,-0.382 0.337,-0.379C0.324,-0.377 0.311,-0.372 0.299,-0.365C0.286,-0.358 0.276,-0.347 0.269,-0.332C0.261,-0.317 0.257,-0.297 0.257,-0.272L0.257,-0L0.066,-0L0.066,-0.553L0.208,-0.553L0.238,-0.465L0.247,-0.465C0.257,-0.483 0.27,-0.5 0.286,-0.514C0.302,-0.529 0.319,-0.541 0.339,-0.55C0.359,-0.559 0.379,-0.563 0.4,-0.563Z" style="fill-rule:nonzero;"/>
            </g>
            <g transform="matrix(127.128,0,0,127.128,1536.39,414.749)">
                <path d="M0.258,-0.553L0.258,-0L0.067,-0L0.067,-0.553L0.258,-0.553ZM0.163,-0.776C0.19,-0.776 0.214,-0.77 0.235,-0.759C0.255,-0.747 0.265,-0.725 0.265,-0.691C0.265,-0.658 0.255,-0.636 0.235,-0.624C0.214,-0.613 0.19,-0.607 0.163,-0.607C0.135,-0.607 0.111,-0.613 0.092,-0.624C0.072,-0.636 0.062,-0.658 0.062,-0.691C0.062,-0.725 0.072,-0.747 0.092,-0.759C0.111,-0.77 0.135,-0.776 0.163,-0.776Z" style="fill-rule:nonzero;"/>
            </g>
            <g transform="matrix(127.128,0,0,127.128,1568.48,414.749)">
                <path d="M0.318,0.01C0.262,0.01 0.213,-0 0.172,-0.02C0.131,-0.04 0.099,-0.071 0.076,-0.113C0.053,-0.155 0.042,-0.208 0.042,-0.274C0.042,-0.341 0.055,-0.396 0.08,-0.438C0.105,-0.481 0.14,-0.513 0.184,-0.533C0.228,-0.553 0.277,-0.563 0.333,-0.563C0.367,-0.563 0.399,-0.559 0.429,-0.552C0.46,-0.544 0.488,-0.534 0.514,-0.521L0.458,-0.38C0.435,-0.39 0.414,-0.398 0.394,-0.404C0.375,-0.41 0.354,-0.413 0.333,-0.413C0.314,-0.413 0.297,-0.408 0.282,-0.398C0.268,-0.388 0.256,-0.373 0.248,-0.352C0.24,-0.332 0.236,-0.306 0.236,-0.275C0.236,-0.243 0.24,-0.217 0.248,-0.198C0.257,-0.178 0.268,-0.164 0.283,-0.155C0.298,-0.146 0.315,-0.142 0.334,-0.142C0.362,-0.142 0.389,-0.146 0.417,-0.155C0.444,-0.164 0.47,-0.176 0.495,-0.191L0.495,-0.039C0.472,-0.024 0.447,-0.012 0.418,-0.003C0.389,0.005 0.356,0.01 0.318,0.01Z" style="fill-rule:nonzero;"/>
            </g>
        </g>
        <g transform="matrix(0.161505,0,0,0.295302,352.266,197.883)">
            <g transform="matrix(54.1664,0,0,54.1664,258.529,414.749)">
                <path d="M0.336,-0.563C0.406,-0.563 0.461,-0.546 0.5,-0.511C0.539,-0.476 0.559,-0.427 0.559,-0.363L0.559,-0L0.427,-0L0.39,-0.073L0.386,-0.073C0.371,-0.054 0.355,-0.038 0.338,-0.026C0.322,-0.013 0.303,-0.004 0.282,0.001C0.261,0.007 0.235,0.01 0.204,0.01C0.172,0.01 0.144,0.003 0.118,-0.01C0.093,-0.023 0.073,-0.042 0.058,-0.069C0.043,-0.095 0.036,-0.129 0.036,-0.169C0.036,-0.228 0.057,-0.272 0.098,-0.301C0.139,-0.329 0.198,-0.346 0.276,-0.349L0.368,-0.352L0.368,-0.36C0.368,-0.385 0.362,-0.402 0.35,-0.413C0.338,-0.423 0.321,-0.428 0.301,-0.428C0.279,-0.428 0.255,-0.424 0.228,-0.417C0.201,-0.409 0.174,-0.399 0.147,-0.387L0.092,-0.513C0.124,-0.529 0.16,-0.542 0.2,-0.55C0.241,-0.559 0.286,-0.563 0.336,-0.563ZM0.369,-0.247L0.325,-0.245C0.29,-0.244 0.265,-0.238 0.251,-0.227C0.237,-0.216 0.23,-0.2 0.23,-0.18C0.23,-0.161 0.235,-0.147 0.245,-0.138C0.255,-0.129 0.269,-0.125 0.285,-0.125C0.308,-0.125 0.328,-0.132 0.344,-0.147C0.361,-0.162 0.369,-0.181 0.369,-0.204L0.369,-0.247Z" style="fill-rule:nonzero;"/>
            </g>
            <g transform="matrix(54.1664,0,0,54.1664,302.697,414.749)">
                <path d="M0.4,-0.563C0.41,-0.563 0.421,-0.562 0.433,-0.561C0.444,-0.559 0.452,-0.558 0.458,-0.557L0.441,-0.377C0.435,-0.379 0.427,-0.38 0.417,-0.381C0.407,-0.382 0.394,-0.383 0.376,-0.383C0.364,-0.383 0.351,-0.382 0.337,-0.379C0.324,-0.377 0.311,-0.372 0.299,-0.365C0.286,-0.358 0.276,-0.347 0.269,-0.332C0.261,-0.317 0.257,-0.297 0.257,-0.272L0.257,-0L0.066,-0L0.066,-0.553L0.208,-0.553L0.238,-0.465L0.247,-0.465C0.257,-0.483 0.27,-0.5 0.286,-0.514C0.302,-0.529 0.319,-0.541 0.339,-0.55C0.359,-0.559 0.379,-0.563 0.4,-0.563Z" style="fill-rule:nonzero;"/>
            </g>
            <g transform="matrix(54.1664,0,0,54.1664,324.835,414.749)">
                <path d="M0.315,-0.563C0.369,-0.563 0.415,-0.554 0.454,-0.535C0.493,-0.516 0.523,-0.488 0.544,-0.451C0.566,-0.413 0.576,-0.366 0.576,-0.31L0.576,-0.225L0.235,-0.225C0.236,-0.196 0.247,-0.172 0.267,-0.154C0.287,-0.135 0.317,-0.126 0.356,-0.126C0.39,-0.126 0.422,-0.129 0.451,-0.136C0.48,-0.143 0.509,-0.154 0.54,-0.168L0.54,-0.031C0.513,-0.017 0.484,-0.007 0.453,-0C0.421,0.007 0.381,0.01 0.333,0.01C0.277,0.01 0.228,-0 0.184,-0.02C0.14,-0.04 0.105,-0.071 0.08,-0.112C0.055,-0.154 0.042,-0.208 0.042,-0.273C0.042,-0.339 0.053,-0.394 0.076,-0.437C0.099,-0.48 0.131,-0.511 0.172,-0.532C0.213,-0.553 0.261,-0.563 0.315,-0.563ZM0.322,-0.433C0.299,-0.433 0.281,-0.426 0.265,-0.412C0.25,-0.398 0.241,-0.375 0.239,-0.345L0.403,-0.345C0.403,-0.361 0.399,-0.376 0.393,-0.39C0.387,-0.403 0.378,-0.414 0.366,-0.421C0.354,-0.429 0.339,-0.433 0.322,-0.433Z" style="fill-rule:nonzero;"/>
            </g>
            <g transform="matrix(54.1664,0,0,54.1664,355.25,414.749)">
                <path d="M0.477,-0.17C0.477,-0.135 0.469,-0.104 0.454,-0.077C0.438,-0.05 0.413,-0.028 0.379,-0.013C0.344,0.002 0.299,0.01 0.243,0.01C0.204,0.01 0.169,0.008 0.137,0.003C0.106,-0.001 0.075,-0.009 0.043,-0.021L0.043,-0.174C0.078,-0.158 0.113,-0.146 0.149,-0.139C0.186,-0.132 0.214,-0.129 0.235,-0.129C0.256,-0.129 0.272,-0.131 0.282,-0.136C0.292,-0.141 0.297,-0.148 0.297,-0.157C0.297,-0.165 0.294,-0.172 0.287,-0.178C0.28,-0.184 0.268,-0.19 0.251,-0.198C0.234,-0.205 0.21,-0.215 0.179,-0.228C0.149,-0.241 0.123,-0.255 0.103,-0.27C0.082,-0.285 0.067,-0.302 0.057,-0.323C0.047,-0.344 0.042,-0.37 0.042,-0.4C0.042,-0.454 0.063,-0.495 0.104,-0.522C0.146,-0.549 0.201,-0.563 0.27,-0.563C0.306,-0.563 0.341,-0.559 0.373,-0.551C0.405,-0.543 0.439,-0.531 0.473,-0.516L0.421,-0.393C0.394,-0.405 0.366,-0.415 0.338,-0.423C0.31,-0.43 0.288,-0.434 0.271,-0.434C0.256,-0.434 0.244,-0.432 0.236,-0.428C0.228,-0.424 0.224,-0.419 0.224,-0.411C0.224,-0.404 0.227,-0.398 0.233,-0.393C0.238,-0.388 0.249,-0.382 0.265,-0.375C0.281,-0.368 0.304,-0.359 0.335,-0.346C0.367,-0.333 0.394,-0.319 0.415,-0.304C0.436,-0.29 0.451,-0.272 0.462,-0.25C0.472,-0.229 0.477,-0.202 0.477,-0.17Z" style="fill-rule:nonzero;"/>
            </g>
            <g transform="matrix(54.1664,0,0,54.1664,381.064,414.749)">
                <path d="M0.315,-0.563C0.369,-0.563 0.415,-0.554 0.454,-0.535C0.493,-0.516 0.523,-0.488 0.544,-0.451C0.566,-0.413 0.576,-0.366 0.576,-0.31L0.576,-0.225L0.235,-0.225C0.236,-0.196 0.247,-0.172 0.267,-0.154C0.287,-0.135 0.317,-0.126 0.356,-0.126C0.39,-0.126 0.422,-0.129 0.451,-0.136C0.48,-0.143 0.509,-0.154 0.54,-0.168L0.54,-0.031C0.513,-0.017 0.484,-0.007 0.453,-0C0.421,0.007 0.381,0.01 0.333,0.01C0.277,0.01 0.228,-0 0.184,-0.02C0.14,-0.04 0.105,-0.071 0.08,-0.112C0.055,-0.154 0.042,-0.208 0.042,-0.273C0.042,-0.339 0.053,-0.394 0.076,-0.437C0.099,-0.48 0.131,-0.511 0.172,-0.532C0.213,-0.553 0.261,-0.563 0.315,-0.563ZM0.322,-0.433C0.299,-0.433 0.281,-0.426 0.265,-0.412C0.25,-0.398 0.241,-0.375 0.239,-0.345L0.403,-0.345C0.403,-0.361 0.399,-0.376 0.393,-0.39C0.387,-0.403 0.378,-0.414 0.366,-0.421C0.354,-0.429 0.339,-0.433 0.322,-0.433Z" style="fill-rule:nonzero;"/>
            </g>
            <g transform="matrix(54.1664,0,0,54.1664,411.48,414.749)">
                <path d="M0.336,-0.563C0.406,-0.563 0.461,-0.546 0.5,-0.511C0.539,-0.476 0.559,-0.427 0.559,-0.363L0.559,-0L0.427,-0L0.39,-0.073L0.386,-0.073C0.371,-0.054 0.355,-0.038 0.338,-0.026C0.322,-0.013 0.303,-0.004 0.282,0.001C0.261,0.007 0.235,0.01 0.204,0.01C0.172,0.01 0.144,0.003 0.118,-0.01C0.093,-0.023 0.073,-0.042 0.058,-0.069C0.043,-0.095 0.036,-0.129 0.036,-0.169C0.036,-0.228 0.057,-0.272 0.098,-0.301C0.139,-0.329 0.198,-0.346 0.276,-0.349L0.368,-0.352L0.368,-0.36C0.368,-0.385 0.362,-0.402 0.35,-0.413C0.338,-0.423 0.321,-0.428 0.301,-0.428C0.279,-0.428 0.255,-0.424 0.228,-0.417C0.201,-0.409 0.174,-0.399 0.147,-0.387L0.092,-0.513C0.124,-0.529 0.16,-0.542 0.2,-0.55C0.241,-0.559 0.286,-0.563 0.336,-0.563ZM0.369,-0.247L0.325,-0.245C0.29,-0.244 0.265,-0.238 0.251,-0.227C0.237,-0.216 0.23,-0.2 0.23,-0.18C0.23,-0.161 0.235,-0.147 0.245,-0.138C0.255,-0.129 0.269,-0.125 0.285,-0.125C0.308,-0.125 0.328,-0.132 0.344,-0.147C0.361,-0.162 0.369,-0.181 0.369,-0.204L0.369,-0.247Z" style="fill-rule:nonzero;"/>
            </g>
            <g transform="matrix(54.1664,0,0,54.1664,441.578,414.749)">
                <path d="M0.4,-0.563C0.41,-0.563 0.421,-0.562 0.433,-0.561C0.444,-0.559 0.452,-0.558 0.458,-0.557L0.441,-0.377C0.435,-0.379 0.427,-0.38 0.417,-0.381C0.407,-0.382 0.394,-0.383 0.376,-0.383C0.364,-0.383 0.351,-0.382 0.337,-0.379C0.324,-0.377 0.311,-0.372 0.299,-0.365C0.286,-0.358 0.276,-0.347 0.269,-0.332C0.261,-0.317 0.257,-0.297 0.257,-0.272L0.257,-0L0.066,-0L0.066,-0.553L0.208,-0.553L0.238,-0.465L0.247,-0.465C0.257,-0.483 0.27,-0.5 0.286,-0.514C0.302,-0.529 0.319,-0.541 0.339,-0.55C0.359,-0.559 0.379,-0.563 0.4,-0.563Z" style="fill-rule:nonzero;"/>
            </g>
            <g transform="matrix(54.1664,0,0,54.1664,463.715,414.749)">
                <path d="M0.318,0.01C0.262,0.01 0.213,-0 0.172,-0.02C0.131,-0.04 0.099,-0.071 0.076,-0.113C0.053,-0.155 0.042,-0.208 0.042,-0.274C0.042,-0.341 0.055,-0.396 0.08,-0.438C0.105,-0.481 0.14,-0.513 0.184,-0.533C0.228,-0.553 0.277,-0.563 0.333,-0.563C0.367,-0.563 0.399,-0.559 0.429,-0.552C0.46,-0.544 0.488,-0.534 0.514,-0.521L0.458,-0.38C0.435,-0.39 0.414,-0.398 0.394,-0.404C0.375,-0.41 0.354,-0.413 0.333,-0.413C0.314,-0.413 0.297,-0.408 0.282,-0.398C0.268,-0.388 0.256,-0.373 0.248,-0.352C0.24,-0.332 0.236,-0.306 0.236,-0.275C0.236,-0.243 0.24,-0.217 0.248,-0.198C0.257,-0.178 0.268,-0.164 0.283,-0.155C0.298,-0.146 0.315,-0.142 0.334,-0.142C0.362,-0.142 0.389,-0.146 0.417,-0.155C0.444,-0.164 0.47,-0.176 0.495,-0.191L0.495,-0.039C0.472,-0.024 0.447,-0.012 0.418,-0.003C0.389,0.005 0.356,0.01 0.318,0.01Z" style="fill-rule:nonzero;"/>
            </g>
            <g transform="matrix(54.1664,0,0,54.1664,489.661,414.749)">
                <path d="M0.257,-0.76L0.257,-0.652C0.257,-0.611 0.256,-0.576 0.254,-0.549C0.252,-0.521 0.251,-0.5 0.249,-0.485L0.258,-0.485C0.27,-0.504 0.284,-0.519 0.299,-0.531C0.314,-0.542 0.331,-0.55 0.35,-0.555C0.368,-0.56 0.388,-0.563 0.41,-0.563C0.447,-0.563 0.48,-0.556 0.509,-0.542C0.538,-0.528 0.562,-0.506 0.58,-0.476C0.597,-0.447 0.606,-0.408 0.606,-0.36L0.606,-0L0.414,-0L0.414,-0.302C0.414,-0.339 0.409,-0.366 0.398,-0.385C0.387,-0.404 0.371,-0.413 0.348,-0.413C0.325,-0.413 0.307,-0.406 0.293,-0.393C0.28,-0.38 0.271,-0.361 0.265,-0.336C0.26,-0.31 0.257,-0.28 0.257,-0.243L0.257,-0L0.066,-0L0.066,-0.76L0.257,-0.76Z" style="fill-rule:nonzero;"/>
            </g>
            <g transform="matrix(54.1664,0,0,54.1664,536.951,414.749)">
                <path d="M0.404,-0.563C0.465,-0.563 0.513,-0.538 0.548,-0.49C0.583,-0.441 0.6,-0.37 0.6,-0.278C0.6,-0.215 0.591,-0.162 0.574,-0.119C0.556,-0.077 0.532,-0.044 0.502,-0.023C0.471,-0.001 0.437,0.01 0.398,0.01C0.372,0.01 0.35,0.007 0.332,-0C0.314,-0.007 0.299,-0.015 0.287,-0.024C0.275,-0.034 0.265,-0.044 0.257,-0.054L0.251,-0.054C0.253,-0.042 0.254,-0.028 0.255,-0.013C0.256,0.001 0.257,0.019 0.257,0.038L0.257,0.24L0.066,0.24L0.066,-0.553L0.221,-0.553L0.248,-0.483L0.257,-0.483C0.266,-0.497 0.277,-0.51 0.29,-0.523C0.303,-0.535 0.319,-0.545 0.338,-0.552C0.356,-0.559 0.378,-0.563 0.404,-0.563ZM0.332,-0.413C0.313,-0.413 0.299,-0.409 0.288,-0.4C0.277,-0.391 0.27,-0.378 0.265,-0.36C0.26,-0.342 0.257,-0.32 0.257,-0.294L0.257,-0.279C0.257,-0.25 0.259,-0.225 0.264,-0.205C0.268,-0.185 0.276,-0.17 0.287,-0.159C0.298,-0.149 0.313,-0.144 0.333,-0.144C0.349,-0.144 0.362,-0.149 0.373,-0.158C0.384,-0.167 0.392,-0.181 0.397,-0.201C0.403,-0.221 0.406,-0.247 0.406,-0.28C0.406,-0.328 0.399,-0.363 0.387,-0.383C0.374,-0.403 0.356,-0.413 0.332,-0.413Z" style="fill-rule:nonzero;"/>
            </g>
            <g transform="matrix(54.1664,0,0,54.1664,570.091,414.749)">
                <path d="M0.4,-0.563C0.41,-0.563 0.421,-0.562 0.433,-0.561C0.444,-0.559 0.452,-0.558 0.458,-0.557L0.441,-0.377C0.435,-0.379 0.427,-0.38 0.417,-0.381C0.407,-0.382 0.394,-0.383 0.376,-0.383C0.364,-0.383 0.351,-0.382 0.337,-0.379C0.324,-0.377 0.311,-0.372 0.299,-0.365C0.286,-0.358 0.276,-0.347 0.269,-0.332C0.261,-0.317 0.257,-0.297 0.257,-0.272L0.257,-0L0.066,-0L0.066,-0.553L0.208,-0.553L0.238,-0.465L0.247,-0.465C0.257,-0.483 0.27,-0.5 0.286,-0.514C0.302,-0.529 0.319,-0.541 0.339,-0.55C0.359,-0.559 0.379,-0.563 0.4,-0.563Z" style="fill-rule:nonzero;"/>
            </g>
            <g transform="matrix(54.1664,0,0,54.1664,592.228,414.749)">
                <path d="M0.594,-0.278C0.594,-0.232 0.588,-0.191 0.575,-0.155C0.563,-0.119 0.544,-0.089 0.52,-0.064C0.496,-0.04 0.467,-0.022 0.433,-0.009C0.398,0.003 0.36,0.01 0.317,0.01C0.277,0.01 0.24,0.003 0.207,-0.009C0.173,-0.022 0.144,-0.04 0.12,-0.064C0.095,-0.089 0.076,-0.119 0.062,-0.155C0.049,-0.191 0.042,-0.232 0.042,-0.278C0.042,-0.339 0.053,-0.391 0.075,-0.433C0.098,-0.475 0.13,-0.508 0.171,-0.53C0.213,-0.552 0.262,-0.563 0.32,-0.563C0.373,-0.563 0.42,-0.552 0.461,-0.53C0.503,-0.508 0.535,-0.475 0.559,-0.433C0.582,-0.391 0.594,-0.339 0.594,-0.278ZM0.236,-0.278C0.236,-0.246 0.239,-0.22 0.244,-0.198C0.25,-0.176 0.259,-0.16 0.271,-0.149C0.283,-0.137 0.299,-0.132 0.319,-0.132C0.339,-0.132 0.354,-0.137 0.366,-0.149C0.378,-0.16 0.386,-0.176 0.392,-0.198C0.397,-0.22 0.4,-0.246 0.4,-0.278C0.4,-0.309 0.397,-0.336 0.392,-0.357C0.386,-0.378 0.378,-0.394 0.366,-0.405C0.354,-0.416 0.338,-0.421 0.318,-0.421C0.289,-0.421 0.268,-0.409 0.255,-0.385C0.242,-0.361 0.236,-0.325 0.236,-0.278Z" style="fill-rule:nonzero;"/>
            </g>
            <g transform="matrix(54.1664,0,0,54.1664,624.813,414.749)">
                <path d="M0.052,0.24C0.036,0.24 0.019,0.239 -0.001,0.237C-0.021,0.234 -0.038,0.231 -0.051,0.228L-0.051,0.079C-0.04,0.082 -0.031,0.084 -0.022,0.086C-0.013,0.087 -0.003,0.088 0.008,0.088C0.023,0.088 0.037,0.082 0.049,0.072C0.06,0.061 0.066,0.038 0.066,0.005L0.066,-0.553L0.257,-0.553L0.257,0.045C0.257,0.078 0.25,0.11 0.237,0.139C0.224,0.169 0.203,0.193 0.173,0.212C0.143,0.231 0.103,0.24 0.052,0.24ZM0.061,-0.691C0.061,-0.725 0.071,-0.747 0.091,-0.759C0.11,-0.77 0.134,-0.776 0.162,-0.776C0.189,-0.776 0.213,-0.77 0.234,-0.759C0.254,-0.747 0.264,-0.725 0.264,-0.691C0.264,-0.658 0.254,-0.636 0.234,-0.624C0.213,-0.613 0.189,-0.607 0.162,-0.607C0.134,-0.607 0.11,-0.613 0.091,-0.624C0.071,-0.636 0.061,-0.658 0.061,-0.691Z" style="fill-rule:nonzero;"/>
            </g>
            <g transform="matrix(54.1664,0,0,54.1664,638.487,414.749)">
                <path d="M0.315,-0.563C0.369,-0.563 0.415,-0.554 0.454,-0.535C0.493,-0.516 0.523,-0.488 0.544,-0.451C0.566,-0.413 0.576,-0.366 0.576,-0.31L0.576,-0.225L0.235,-0.225C0.236,-0.196 0.247,-0.172 0.267,-0.154C0.287,-0.135 0.317,-0.126 0.356,-0.126C0.39,-0.126 0.422,-0.129 0.451,-0.136C0.48,-0.143 0.509,-0.154 0.54,-0.168L0.54,-0.031C0.513,-0.017 0.484,-0.007 0.453,-0C0.421,0.007 0.381,0.01 0.333,0.01C0.277,0.01 0.228,-0 0.184,-0.02C0.14,-0.04 0.105,-0.071 0.08,-0.112C0.055,-0.154 0.042,-0.208 0.042,-0.273C0.042,-0.339 0.053,-0.394 0.076,-0.437C0.099,-0.48 0.131,-0.511 0.172,-0.532C0.213,-0.553 0.261,-0.563 0.315,-0.563ZM0.322,-0.433C0.299,-0.433 0.281,-0.426 0.265,-0.412C0.25,-0.398 0.241,-0.375 0.239,-0.345L0.403,-0.345C0.403,-0.361 0.399,-0.376 0.393,-0.39C0.387,-0.403 0.378,-0.414 0.366,-0.421C0.354,-0.429 0.339,-0.433 0.322,-0.433Z" style="fill-rule:nonzero;"/>
            </g>
            <g transform="matrix(54.1664,0,0,54.1664,668.902,414.749)">
                <path d="M0.318,0.01C0.262,0.01 0.213,-0 0.172,-0.02C0.131,-0.04 0.099,-0.071 0.076,-0.113C0.053,-0.155 0.042,-0.208 0.042,-0.274C0.042,-0.341 0.055,-0.396 0.08,-0.438C0.105,-0.481 0.14,-0.513 0.184,-0.533C0.228,-0.553 0.277,-0.563 0.333,-0.563C0.367,-0.563 0.399,-0.559 0.429,-0.552C0.46,-0.544 0.488,-0.534 0.514,-0.521L0.458,-0.38C0.435,-0.39 0.414,-0.398 0.394,-0.404C0.375,-0.41 0.354,-0.413 0.333,-0.413C0.314,-0.413 0.297,-0.408 0.282,-0.398C0.268,-0.388 0.256,-0.373 0.248,-0.352C0.24,-0.332 0.236,-0.306 0.236,-0.275C0.236,-0.243 0.24,-0.217 0.248,-0.198C0.257,-0.178 0.268,-0.164 0.283,-0.155C0.298,-0.146 0.315,-0.142 0.334,-0.142C0.362,-0.142 0.389,-0.146 0.417,-0.155C0.444,-0.164 0.47,-0.176 0.495,-0.191L0.495,-0.039C0.472,-0.024 0.447,-0.012 0.418,-0.003C0.389,0.005 0.356,0.01 0.318,0.01Z" style="fill-rule:nonzero;"/>
            </g>
            <g transform="matrix(54.1664,0,0,54.1664,694.848,414.749)">
                <path d="M0.337,-0.141C0.354,-0.141 0.37,-0.143 0.384,-0.146C0.399,-0.15 0.414,-0.155 0.429,-0.16L0.429,-0.021C0.408,-0.012 0.386,-0.004 0.363,0.001C0.34,0.007 0.31,0.01 0.274,0.01C0.238,0.01 0.207,0.004 0.179,-0.007C0.152,-0.018 0.131,-0.038 0.115,-0.066C0.1,-0.094 0.093,-0.132 0.093,-0.182L0.093,-0.41L0.026,-0.41L0.026,-0.488L0.111,-0.548L0.16,-0.664L0.285,-0.664L0.285,-0.553L0.421,-0.553L0.421,-0.41L0.285,-0.41L0.285,-0.195C0.285,-0.177 0.29,-0.163 0.299,-0.155C0.308,-0.146 0.321,-0.141 0.337,-0.141Z" style="fill-rule:nonzero;"/>
            </g>
        </g>
        <g transform="matrix(8.42525,0,0,15.4051,-1488.69,-4106.44)">
            <path d="M207.207,283.287L202.122,283.287L202.122,274.721L207.207,274.721L207.207,276.578L204.436,276.578L204.436,277.926L207.002,277.926L207.002,279.783L204.436,279.783L204.436,281.4L207.207,281.4L207.207,283.287Z" style="fill:white;fill-rule:nonzero;stroke:white;stroke-width:0.09px;"/>
            <path d="M215.112,276.648L215.112,283.287L213.383,283.287L213.096,282.461L212.961,282.461C212.825,282.684 212.652,282.864 212.443,283.003C212.234,283.142 212.002,283.243 211.748,283.308C211.495,283.372 211.231,283.404 210.957,283.404C210.524,283.404 210.132,283.32 209.783,283.152C209.433,282.984 209.156,282.721 208.951,282.361C208.746,282.002 208.643,281.539 208.643,280.973L208.643,276.648L210.934,276.648L210.934,280.275C210.934,280.705 210.996,281.032 211.119,281.257C211.242,281.481 211.444,281.594 211.725,281.594C212.014,281.594 212.238,281.516 212.396,281.359C212.554,281.203 212.665,280.973 212.727,280.668C212.79,280.363 212.821,279.992 212.821,279.555L212.821,276.648L215.112,276.648Z" style="fill:white;fill-rule:nonzero;stroke:white;stroke-width:0.09px;"/>
            <path d="M220.022,276.531C220.147,276.531 220.278,276.54 220.415,276.558C220.551,276.575 220.653,276.59 220.719,276.602L220.514,278.764C220.44,278.744 220.344,278.728 220.227,278.714C220.11,278.7 219.946,278.693 219.735,278.693C219.59,278.693 219.436,278.707 219.272,278.734C219.108,278.762 218.953,278.819 218.806,278.907C218.66,278.995 218.54,279.128 218.446,279.306C218.352,279.483 218.305,279.723 218.305,280.023L218.305,283.287L216.014,283.287L216.014,276.648L217.719,276.648L218.077,277.709L218.188,277.709C218.309,277.49 218.464,277.292 218.654,277.114C218.843,276.937 219.056,276.795 219.292,276.689C219.529,276.584 219.772,276.531 220.022,276.531Z" style="fill:white;fill-rule:nonzero;stroke:white;stroke-width:0.09px;"/>
            <path d="M227.258,279.953C227.258,280.508 227.182,281 227.03,281.43C226.877,281.859 226.657,282.221 226.368,282.514C226.079,282.807 225.729,283.028 225.319,283.179C224.909,283.329 224.446,283.404 223.93,283.404C223.45,283.404 223.009,283.329 222.609,283.179C222.208,283.028 221.86,282.807 221.563,282.514C221.266,282.221 221.037,281.859 220.874,281.43C220.712,281 220.631,280.508 220.631,279.953C220.631,279.219 220.765,278.598 221.033,278.09C221.3,277.582 221.683,277.195 222.181,276.93C222.679,276.664 223.274,276.531 223.965,276.531C224.602,276.531 225.168,276.664 225.665,276.93C226.161,277.195 226.55,277.582 226.833,278.09C227.117,278.598 227.258,279.219 227.258,279.953ZM222.957,279.953C222.957,280.332 222.991,280.651 223.057,280.911C223.123,281.171 223.23,281.368 223.376,281.503C223.523,281.638 223.715,281.705 223.954,281.705C224.192,281.705 224.381,281.638 224.522,281.503C224.663,281.368 224.765,281.171 224.83,280.911C224.894,280.651 224.926,280.332 224.926,279.953C224.926,279.574 224.894,279.258 224.83,279.004C224.765,278.75 224.662,278.559 224.519,278.43C224.376,278.301 224.184,278.236 223.942,278.236C223.594,278.236 223.343,278.381 223.189,278.67C223.035,278.959 222.957,279.387 222.957,279.953Z" style="fill:white;fill-rule:nonzero;stroke:white;stroke-width:0.09px;"/>
            <path d="M230.551,283.287L228.272,283.287L228.272,274.721L233.334,274.721L233.334,276.578L230.551,276.578L230.551,278.213L233.118,278.213L233.118,280.07L230.551,280.07L230.551,283.287Z" style="fill:white;fill-rule:nonzero;stroke:white;stroke-width:0.09px;"/>
            <path d="M237.571,276.531C238.411,276.531 239.067,276.739 239.54,277.155C240.012,277.571 240.248,278.164 240.248,278.934L240.248,283.287L238.661,283.287L238.221,282.408L238.174,282.408C237.987,282.643 237.794,282.833 237.597,282.979C237.4,283.126 237.174,283.233 236.92,283.302C236.666,283.37 236.356,283.404 235.989,283.404C235.606,283.404 235.262,283.326 234.957,283.17C234.653,283.014 234.413,282.777 234.237,282.461C234.061,282.145 233.973,281.744 233.973,281.26C233.973,280.549 234.219,280.021 234.711,279.678C235.204,279.334 235.916,279.141 236.85,279.098L237.957,279.063L237.957,278.969C237.957,278.672 237.884,278.461 237.738,278.336C237.591,278.211 237.395,278.148 237.149,278.148C236.887,278.148 236.595,278.194 236.273,278.286C235.951,278.378 235.627,278.496 235.303,278.641L234.641,277.129C235.024,276.934 235.457,276.785 235.942,276.684C236.426,276.582 236.969,276.531 237.571,276.531ZM237.969,280.322L237.442,280.346C237.02,280.361 236.724,280.435 236.554,280.565C236.384,280.696 236.299,280.883 236.299,281.125C236.299,281.352 236.36,281.519 236.481,281.626C236.602,281.733 236.762,281.787 236.961,281.787C237.239,281.787 237.476,281.699 237.673,281.523C237.871,281.348 237.969,281.119 237.969,280.838L237.969,280.322Z" style="fill:white;fill-rule:nonzero;stroke:white;stroke-width:0.09px;"/>
            <path d="M243.29,274.17L243.29,276.232C243.29,276.467 243.282,276.69 243.266,276.903C243.25,277.116 243.231,277.316 243.207,277.504L243.29,277.504C243.461,277.234 243.686,277.005 243.963,276.815C244.241,276.626 244.604,276.531 245.053,276.531C245.745,276.531 246.31,276.824 246.749,277.41C247.189,277.996 247.409,278.844 247.409,279.953C247.409,280.707 247.307,281.341 247.104,281.854C246.901,282.368 246.617,282.755 246.251,283.015C245.886,283.274 245.463,283.404 244.983,283.404C244.514,283.404 244.158,283.323 243.914,283.161C243.669,282.999 243.461,282.824 243.29,282.637L243.149,282.637L242.786,283.287L240.998,283.287L240.998,274.17L243.29,274.17ZM244.215,278.33C244.004,278.33 243.831,278.379 243.694,278.477C243.557,278.574 243.456,278.726 243.389,278.931C243.323,279.136 243.29,279.396 243.29,279.713L243.29,280.035C243.29,280.551 243.359,280.934 243.498,281.184C243.636,281.434 243.883,281.559 244.239,281.559C244.508,281.559 244.715,281.42 244.86,281.143C245.004,280.865 245.077,280.461 245.077,279.93C245.077,279.398 245.006,278.999 244.866,278.731C244.725,278.464 244.508,278.33 244.215,278.33Z" style="fill:white;fill-rule:nonzero;stroke:white;stroke-width:0.09px;"/>
        </g>
        <g transform="matrix(0.981387,0,0,1.45413,113.412,-89.4241)">
            <rect x="22.176" y="142.07" width="80.554" height="97.829"/>
        </g>
        <g id="satellite---1013-" serif:id="satellite-[#1013]" transform="matrix(-0.097483,0.0224517,-0.012275,-0.178182,2740.19,25144.9)">
            <path d="M8856.29,141334L8912.8,141391L8743.26,141560L8686.71,141504L8856.29,141334ZM8818.72,141297L8649.14,141466L8592.63,141409L8762.17,141240L8818.72,141297ZM8310.03,141127L8253.48,141071L8423.06,140901L8479.57,140958L8310.03,141127ZM8386.09,140864L8216.55,141034L8160,140977L8329.58,140808L8386.09,140864ZM8451.31,141325L8394.8,141268L8564.38,141099C8599.07,141134 8586.16,141121 8620.89,141155L8451.31,141325ZM8722.84,140918L8801.5,140997L8699.26,141021L8722.84,140918ZM8684.47,141106L8960,141042L8677.4,140760L8613.81,141035L8564.38,140986L8281.78,141268L8451.31,141438L8733.91,141155L8684.47,141106Z" style="fill:white;"/>
        </g>
    </g>
</svg>
